<?xml version="1.0" encoding="utf-8"?>
<!-- Generator: Adobe Illustrator 22.0.0, SVG Export Plug-In . SVG Version: 6.00 Build 0)  -->
<svg version="1.1" id="Calque_1" xmlns="http://www.w3.org/2000/svg" xmlns:xlink="http://www.w3.org/1999/xlink" x="0px" y="0px"
	 width="1191px" height="678.8px" viewBox="0 0 1191 678.8" style="enable-background:new 0 0 1191 678.8;" xml:space="preserve">
<style type="text/css">
	.st0{fill:none;stroke:#000000;stroke-linejoin:round;stroke-miterlimit:10;}
	.st1{fill:#99CCFF;}
</style>
<g>
	<line class="st0" x1="39.5" y1="84" x2="58.1" y2="84"/>
	<line class="st0" x1="25.4" y1="121.3" x2="34.8" y2="121.3"/>
	<line class="st0" x1="44.1" y1="37.2" x2="25.4" y2="121.3"/>
	<line class="st0" x1="53.5" y1="37.2" x2="34.8" y2="121.3"/>
	<line class="st0" x1="53.5" y1="37.2" x2="44.1" y2="37.2"/>
	<line class="st0" x1="72.2" y1="121.3" x2="62.9" y2="121.3"/>
	<line class="st0" x1="53.5" y1="37.2" x2="72.2" y2="121.3"/>
	<line class="st0" x1="44.1" y1="37.2" x2="62.9" y2="121.3"/>
	<line class="st0" x1="39.5" y1="93.4" x2="58.1" y2="93.4"/>
	<polygon class="st1" points="86.2,121.3 81.6,121.3 81.6,37.2 90.8,37.2 90.8,121.3 	"/>
	<polygon class="st0" points="86.2,121.3 81.6,121.3 81.6,37.2 90.8,37.2 90.8,121.3 	"/>
	<path class="st0" d="M100.2,93.4c15.6,0,28.1-12.7,28.1-28.1s-12.5-28.1-28.1-28.1"/>
	<path class="st0" d="M100.2,84c10.3,0,18.7-8.4,18.7-18.7s-8.4-18.7-18.7-18.7"/>
	<polygon class="st1" points="95.6,46.5 90.8,46.5 90.8,37.2 100.2,37.2 100.2,46.5 	"/>
	<polygon class="st0" points="95.6,46.5 90.8,46.5 90.8,37.2 100.2,37.2 100.2,46.5 	"/>
	<polygon class="st1" points="95.6,93.4 90.8,93.4 90.8,84 100.2,84 100.2,93.4 	"/>
	<polygon class="st0" points="95.6,93.4 90.8,93.4 90.8,84 100.2,84 100.2,93.4 	"/>
	<polygon class="st1" points="142.3,121.3 137.7,121.3 137.7,37.2 147,37.2 147,121.3 	"/>
	<polygon class="st0" points="142.3,121.3 137.7,121.3 137.7,37.2 147,37.2 147,121.3 	"/>
	<path class="st0" d="M156.3,93.4c15.6,0,28.1-12.7,28.1-28.1s-12.5-28.1-28.1-28.1"/>
	<path class="st0" d="M156.3,84c10.4,0,18.7-8.4,18.7-18.7s-8.3-18.7-18.7-18.7"/>
	<polygon class="st1" points="151.6,46.5 147,46.5 147,37.2 156.3,37.2 156.3,46.5 	"/>
	<polygon class="st0" points="151.6,46.5 147,46.5 147,37.2 156.3,37.2 156.3,46.5 	"/>
	<polygon class="st1" points="151.6,93.4 147,93.4 147,84 156.3,84 156.3,93.4 	"/>
	<polygon class="st0" points="151.6,93.4 147,93.4 147,84 156.3,84 156.3,93.4 	"/>
	<line class="st0" x1="165.6" y1="93.4" x2="175" y2="121.3"/>
	<line class="st0" x1="175" y1="93.4" x2="184.4" y2="121.3"/>
	<line class="st0" x1="165.6" y1="93.4" x2="175" y2="93.4"/>
	<line class="st0" x1="175" y1="121.3" x2="184.4" y2="121.3"/>
	<line class="st0" x1="193.7" y1="37.2" x2="203.1" y2="37.2"/>
	<line class="st0" x1="212.5" y1="121.3" x2="193.7" y2="37.2"/>
	<line class="st0" x1="221.8" y1="121.3" x2="203.1" y2="37.2"/>
	<line class="st0" x1="221.8" y1="121.3" x2="212.5" y2="121.3"/>
	<line class="st0" x1="240.4" y1="37.2" x2="231.1" y2="37.2"/>
	<line class="st0" x1="221.8" y1="121.3" x2="240.4" y2="37.2"/>
	<line class="st0" x1="212.5" y1="121.3" x2="231.1" y2="37.2"/>
	<line class="st0" x1="249.8" y1="37.2" x2="259.2" y2="37.2"/>
	<line class="st0" x1="268.5" y1="121.3" x2="249.8" y2="37.2"/>
	<line class="st0" x1="277.9" y1="121.3" x2="259.2" y2="37.2"/>
	<line class="st0" x1="277.9" y1="121.3" x2="268.5" y2="121.3"/>
	<line class="st0" x1="277.9" y1="121.3" x2="296.5" y2="37.2"/>
	<line class="st0" x1="268.5" y1="121.3" x2="287.3" y2="37.2"/>
	<line class="st0" x1="305.9" y1="121.3" x2="287.3" y2="37.2"/>
	<line class="st0" x1="315.2" y1="121.3" x2="296.5" y2="37.2"/>
	<line class="st0" x1="315.2" y1="121.3" x2="305.9" y2="121.3"/>
	<line class="st0" x1="334" y1="37.2" x2="324.6" y2="37.2"/>
	<line class="st0" x1="315.2" y1="121.3" x2="334" y2="37.2"/>
	<line class="st0" x1="305.9" y1="121.3" x2="324.6" y2="37.2"/>
	<line class="st0" x1="287.3" y1="37.2" x2="296.5" y2="37.2"/>
	<line class="st0" x1="352.7" y1="121.3" x2="343.3" y2="121.3"/>
	<line class="st0" x1="352.7" y1="121.3" x2="371.3" y2="37.2"/>
	<line class="st0" x1="343.3" y1="121.3" x2="362.1" y2="37.2"/>
	<line class="st0" x1="380.7" y1="121.3" x2="362.1" y2="37.2"/>
	<line class="st0" x1="390" y1="121.3" x2="371.3" y2="37.2"/>
	<line class="st0" x1="390" y1="121.3" x2="380.7" y2="121.3"/>
	<line class="st0" x1="408.7" y1="37.2" x2="399.4" y2="37.2"/>
	<line class="st0" x1="390" y1="121.3" x2="408.7" y2="37.2"/>
	<line class="st0" x1="380.7" y1="121.3" x2="399.4" y2="37.2"/>
	<line class="st0" x1="362.1" y1="37.2" x2="371.3" y2="37.2"/>
	<polygon class="st1" points="114.3,214.9 109.6,214.9 109.6,130.7 118.9,130.7 118.9,214.9 	"/>
	<polygon class="st0" points="114.3,214.9 109.6,214.9 109.6,130.7 118.9,130.7 118.9,214.9 	"/>
	<polygon class="st1" points="114.3,140.1 90.8,140.1 90.8,130.7 137.7,130.7 137.7,140.1 	"/>
	<polygon class="st0" points="114.3,140.1 90.8,140.1 90.8,130.7 137.7,130.7 137.7,140.1 	"/>
	<path class="st0" d="M147,191.5c0,12.8,10.4,23.3,23.3,23.3c12.9,0,23.3-10.6,23.3-23.3"/>
	<path class="st0" d="M156.3,191.5c0,7.7,6.3,14,14.1,14c7.7,0,14-6.3,14-14"/>
	<polygon class="st1" points="151.6,191.5 147,191.5 147,130.7 156.3,130.7 156.3,191.5 	"/>
	<polygon class="st0" points="151.6,191.5 147,191.5 147,130.7 156.3,130.7 156.3,191.5 	"/>
	<polygon class="st1" points="189,191.5 184.4,191.5 184.4,130.7 193.7,130.7 193.7,191.5 	"/>
	<polygon class="st0" points="189,191.5 184.4,191.5 184.4,130.7 193.7,130.7 193.7,191.5 	"/>
	<path class="st0" d="M58.1,214.9c12.9,0,23.5-10.6,23.5-23.3c0-12.9-10.6-23.5-23.5-23.5"/>
	<path class="st0" d="M58.1,177.4c-12.8,0-23.3-10.4-23.3-23.3s10.6-23.3,23.3-23.3"/>
	<path class="st0" d="M58.1,168c-7.7,0-14-6.2-14-14s6.3-14,14-14"/>
	<path class="st0" d="M58.1,205.5c7.8,0,14.1-6.3,14.1-14c0-7.8-6.3-14.1-14.1-14.1"/>
	<path class="st1" d="M436.7,121.3c-12.8,0-23.3-10.4-23.3-23.3s10.6-23.3,23.3-23.3c12.9,0,23.5,10.4,23.5,23.3
		C460.2,110.9,449.6,121.3,436.7,121.3z"/>
	<path class="st0" d="M436.7,121.3c-12.8,0-23.3-10.4-23.3-23.3s10.6-23.3,23.3-23.3c12.9,0,23.5,10.4,23.5,23.3
		C460.2,110.9,449.6,121.3,436.7,121.3z"/>
	<path class="st1" d="M436.7,84c-12.8,0-23.3-10.6-23.3-23.5c0-12.8,10.6-23.3,23.3-23.3c12.9,0,23.5,10.6,23.5,23.3
		C460.2,73.5,449.6,84,436.7,84z"/>
	<path class="st0" d="M436.7,84c-12.8,0-23.3-10.6-23.3-23.5c0-12.8,10.6-23.3,23.3-23.3c12.9,0,23.5,10.6,23.5,23.3
		C460.2,73.5,449.6,84,436.7,84z"/>
	<path class="st1" d="M436.7,74.6c-7.7,0-14-6.3-14-14.1c0-7.7,6.3-14,14-14c7.8,0,14.1,6.3,14.1,14
		C450.8,68.3,444.5,74.6,436.7,74.6z"/>
	<path class="st0" d="M436.7,74.6c-7.7,0-14-6.3-14-14.1c0-7.7,6.3-14,14-14c7.8,0,14.1,6.3,14.1,14
		C450.8,68.3,444.5,74.6,436.7,74.6z"/>
	<path class="st1" d="M436.7,112c-7.7,0-14-6.2-14-14c0-7.8,6.3-14,14-14c7.8,0,14.1,6.2,14.1,14C450.8,105.8,444.5,112,436.7,112z"
		/>
	<path class="st0" d="M436.7,112c-7.7,0-14-6.2-14-14c0-7.8,6.3-14,14-14c7.8,0,14.1,6.2,14.1,14C450.8,105.8,444.5,112,436.7,112z"
		/>
	<polygon class="st1" points="69.9,140.1 58.1,140.1 58.1,130.7 81.6,130.7 81.6,140.1 	"/>
	<polygon class="st0" points="69.9,140.1 58.1,140.1 58.1,130.7 81.6,130.7 81.6,140.1 	"/>
	<polygon class="st1" points="46.5,214.9 34.8,214.9 34.8,205.5 58.1,205.5 58.1,214.9 	"/>
	<polygon class="st0" points="46.5,214.9 34.8,214.9 34.8,205.5 58.1,205.5 58.1,214.9 	"/>
	<path class="st0" d="M240.4,214.9c12.9,0,23.3-10.6,23.3-23.3c0-12.9-10.4-23.5-23.3-23.5"/>
	<path class="st0" d="M235.8,177.4c12.9,0,23.3-10.4,23.3-23.3s-10.4-23.3-23.3-23.3"/>
	<path class="st0" d="M235.8,168c7.7,0,14-6.2,14-14s-6.3-14-14-14"/>
	<path class="st0" d="M240.4,205.5c7.8,0,14.1-6.3,14.1-14c0-7.8-6.3-14.1-14.1-14.1"/>
	<polygon class="st1" points="217.1,214.9 212.5,214.9 212.5,130.7 221.8,130.7 221.8,214.9 	"/>
	<polygon class="st0" points="217.1,214.9 212.5,214.9 212.5,130.7 221.8,130.7 221.8,214.9 	"/>
	<polygon class="st1" points="228.8,140.1 221.8,140.1 221.8,130.7 235.8,130.7 235.8,140.1 	"/>
	<polygon class="st0" points="228.8,140.1 221.8,140.1 221.8,130.7 235.8,130.7 235.8,140.1 	"/>
	<polygon class="st1" points="228.8,177.4 221.8,177.4 221.8,168 235.8,168 235.8,177.4 	"/>
	<polygon class="st0" points="228.8,177.4 221.8,177.4 221.8,168 235.8,168 235.8,177.4 	"/>
	<polygon class="st1" points="231.1,214.9 221.8,214.9 221.8,205.5 240.4,205.5 240.4,214.9 	"/>
	<polygon class="st0" points="231.1,214.9 221.8,214.9 221.8,205.5 240.4,205.5 240.4,214.9 	"/>
	<path class="st0" d="M277.9,154.1c0-12.9,10.4-23.3,23.3-23.3"/>
	<path class="st0" d="M287.3,154.1c0-7.8,6.2-14,14-14"/>
	<polygon class="st1" points="313,140.1 301.2,140.1 301.2,130.7 324.6,130.7 324.6,140.1 	"/>
	<polygon class="st0" points="313,140.1 301.2,140.1 301.2,130.7 324.6,130.7 324.6,140.1 	"/>
	<polygon class="st1" points="282.5,191.5 277.9,191.5 277.9,154.1 287.3,154.1 287.3,191.5 	"/>
	<polygon class="st0" points="282.5,191.5 277.9,191.5 277.9,154.1 287.3,154.1 287.3,191.5 	"/>
	<path class="st0" d="M277.9,191.5c0,12.8,10.4,23.3,23.3,23.3"/>
	<path class="st0" d="M287.3,191.5c0,7.7,6.2,14,14,14"/>
	<polygon class="st1" points="312.8,205.5 324.6,205.5 324.6,214.9 301.2,214.9 301.2,205.5 	"/>
	<polygon class="st0" points="312.8,205.5 324.6,205.5 324.6,214.9 301.2,214.9 301.2,205.5 	"/>
	<path class="st0" d="M380.7,154.1c0-12.9-10.4-23.3-23.3-23.3"/>
	<path class="st0" d="M371.3,154.1c0-7.8-6.2-14-14-14"/>
	<polygon class="st1" points="345.7,140.1 334,140.1 334,130.7 357.3,130.7 357.3,140.1 	"/>
	<polygon class="st0" points="345.7,140.1 334,140.1 334,130.7 357.3,130.7 357.3,140.1 	"/>
	<polygon class="st1" points="376,191.5 371.3,191.5 371.3,154.1 380.7,154.1 380.7,191.5 	"/>
	<polygon class="st0" points="376,191.5 371.3,191.5 371.3,154.1 380.7,154.1 380.7,191.5 	"/>
	<path class="st0" d="M380.7,191.5c0,12.8-10.4,23.3-23.3,23.3"/>
	<path class="st0" d="M371.3,191.5c0,7.7-6.2,14-14,14"/>
	<polygon class="st1" points="345.6,205.5 357.3,205.5 357.3,214.9 334,214.9 334,205.5 	"/>
	<polygon class="st0" points="345.6,205.5 357.3,205.5 357.3,214.9 334,214.9 334,205.5 	"/>
	<polygon class="st1" points="338.6,205.5 334,205.5 334,140.1 343.3,140.1 343.3,205.5 	"/>
	<polygon class="st0" points="338.6,205.5 334,205.5 334,140.1 343.3,140.1 343.3,205.5 	"/>
	<polygon class="st1" points="394.8,214.9 390,214.9 390,130.7 399.4,130.7 399.4,214.9 	"/>
	<polygon class="st0" points="394.8,214.9 390,214.9 390,130.7 399.4,130.7 399.4,214.9 	"/>
	<polygon class="st1" points="418.1,140.1 399.4,140.1 399.4,130.7 436.7,130.7 436.7,140.1 	"/>
	<polygon class="st0" points="418.1,140.1 399.4,140.1 399.4,130.7 436.7,130.7 436.7,140.1 	"/>
	<polygon class="st1" points="418.1,214.9 399.4,214.9 399.4,205.5 436.7,205.5 436.7,214.9 	"/>
	<polygon class="st0" points="418.1,214.9 399.4,214.9 399.4,205.5 436.7,205.5 436.7,214.9 	"/>
	<polygon class="st1" points="413.4,177.4 399.4,177.4 399.4,168 427.5,168 427.5,177.4 	"/>
	<polygon class="st0" points="413.4,177.4 399.4,177.4 399.4,168 427.5,168 427.5,177.4 	"/>
	<polygon class="st1" points="450.8,214.9 446.1,214.9 446.1,130.7 455.4,130.7 455.4,214.9 	"/>
	<polygon class="st0" points="450.8,214.9 446.1,214.9 446.1,130.7 455.4,130.7 455.4,214.9 	"/>
	<polygon class="st1" points="474.2,140.1 455.4,140.1 455.4,130.7 492.9,130.7 492.9,140.1 	"/>
	<polygon class="st0" points="474.2,140.1 455.4,140.1 455.4,130.7 492.9,130.7 492.9,140.1 	"/>
	<polygon class="st1" points="469.4,177.4 455.4,177.4 455.4,168 483.5,168 483.5,177.4 	"/>
	<polygon class="st0" points="469.4,177.4 455.4,177.4 455.4,168 483.5,168 483.5,177.4 	"/>
	<path class="st0" d="M502.3,154.1c0-12.9,10.4-23.3,23.3-23.3"/>
	<path class="st0" d="M511.5,154.1c0-7.8,6.3-14,14.1-14"/>
	<polygon class="st1" points="537.2,140.1 525.6,140.1 525.6,130.7 549,130.7 549,140.1 	"/>
	<polygon class="st0" points="537.2,140.1 525.6,140.1 525.6,130.7 549,130.7 549,140.1 	"/>
	<polygon class="st1" points="506.9,191.5 502.3,191.5 502.3,154.1 511.5,154.1 511.5,191.5 	"/>
	<polygon class="st0" points="506.9,191.5 502.3,191.5 502.3,154.1 511.5,154.1 511.5,191.5 	"/>
	<path class="st0" d="M502.3,191.5c0,12.8,10.4,23.3,23.3,23.3"/>
	<path class="st0" d="M511.5,191.5c0,7.7,6.3,14,14.1,14"/>
	<polygon class="st1" points="537.2,205.5 549,205.5 549,214.9 525.6,214.9 525.6,205.5 	"/>
	<polygon class="st0" points="537.2,205.5 549,205.5 549,214.9 525.6,214.9 525.6,205.5 	"/>
	<polygon class="st1" points="544.2,214.9 539.6,214.9 539.6,168 549,168 549,214.9 	"/>
	<polygon class="st0" points="544.2,214.9 539.6,214.9 539.6,168 549,168 549,214.9 	"/>
	<polygon class="st1" points="535,177.4 520.9,177.4 520.9,168 549,168 549,177.4 	"/>
	<polygon class="st0" points="535,177.4 520.9,177.4 520.9,168 549,168 549,177.4 	"/>
	<polygon class="st1" points="572.3,214.9 567.7,214.9 567.7,130.7 576.9,130.7 576.9,214.9 	"/>
	<polygon class="st0" points="572.3,214.9 567.7,214.9 567.7,130.7 576.9,130.7 576.9,214.9 	"/>
	<polygon class="st1" points="595.7,177.4 576.9,177.4 576.9,168 614.4,168 614.4,177.4 	"/>
	<polygon class="st0" points="595.7,177.4 576.9,177.4 576.9,168 614.4,168 614.4,177.4 	"/>
	<polygon class="st1" points="609.7,214.9 605,214.9 605,130.7 614.4,130.7 614.4,214.9 	"/>
	<polygon class="st0" points="609.7,214.9 605,214.9 605,130.7 614.4,130.7 614.4,214.9 	"/>
	<polygon class="st1" points="488.2,121.3 483.5,121.3 483.5,37.2 492.9,37.2 492.9,121.3 	"/>
	<polygon class="st0" points="488.2,121.3 483.5,121.3 483.5,37.2 492.9,37.2 492.9,121.3 	"/>
	<path class="st0" d="M502.3,98c0,12.9,10.4,23.3,23.3,23.3c12.8,0,23.3-10.4,23.3-23.3"/>
	<path class="st0" d="M511.5,98c0,7.8,6.3,14,14.1,14c7.7,0,14-6.2,14-14"/>
	<polygon class="st1" points="544.2,98 539.6,98 539.6,37.2 549,37.2 549,98 	"/>
	<polygon class="st0" points="544.2,98 539.6,98 539.6,37.2 549,37.2 549,98 	"/>
	<line class="st0" x1="502.3" y1="98" x2="511.5" y2="98"/>
	<line class="st0" x1="586.3" y1="93.4" x2="595.7" y2="121.3"/>
	<line class="st0" x1="595.7" y1="93.4" x2="605" y2="121.3"/>
	<line class="st0" x1="586.3" y1="93.4" x2="595.7" y2="93.4"/>
	<line class="st0" x1="595.7" y1="121.3" x2="605" y2="121.3"/>
	<polygon class="st1" points="563,121.3 558.3,121.3 558.3,37.2 567.7,37.2 567.7,121.3 	"/>
	<polygon class="st0" points="563,121.3 558.3,121.3 558.3,37.2 567.7,37.2 567.7,121.3 	"/>
	<line class="st0" x1="586.3" y1="65.3" x2="595.7" y2="37.2"/>
	<line class="st0" x1="595.7" y1="65.3" x2="605" y2="37.2"/>
	<line class="st0" x1="586.3" y1="65.3" x2="595.7" y2="65.3"/>
	<line class="st0" x1="595.7" y1="37.2" x2="605" y2="37.2"/>
	<polygon class="st1" points="628.4,121.3 623.8,121.3 623.8,37.2 633.1,37.2 633.1,121.3 	"/>
	<polygon class="st0" points="628.4,121.3 623.8,121.3 623.8,37.2 633.1,37.2 633.1,121.3 	"/>
	<polygon class="st1" points="647.1,121.3 623.8,121.3 623.8,112 670.5,112 670.5,121.3 	"/>
	<polygon class="st0" points="647.1,121.3 623.8,121.3 623.8,112 670.5,112 670.5,121.3 	"/>
	<line class="st0" x1="633.1" y1="214.9" x2="642.4" y2="214.9"/>
	<line class="st0" x1="651.7" y1="130.7" x2="633.1" y2="214.9"/>
	<line class="st0" x1="661.1" y1="130.7" x2="642.4" y2="214.9"/>
	<line class="st0" x1="661.1" y1="130.7" x2="651.7" y2="130.7"/>
	<line class="st0" x1="661.1" y1="130.7" x2="679.8" y2="214.9"/>
	<line class="st0" x1="651.7" y1="130.7" x2="670.5" y2="214.9"/>
	<line class="st0" x1="689.2" y1="130.7" x2="670.5" y2="214.9"/>
	<line class="st0" x1="698.6" y1="130.7" x2="679.8" y2="214.9"/>
	<line class="st0" x1="698.6" y1="130.7" x2="689.2" y2="130.7"/>
	<line class="st0" x1="717.2" y1="214.9" x2="707.9" y2="214.9"/>
	<line class="st0" x1="698.6" y1="130.7" x2="717.2" y2="214.9"/>
	<line class="st0" x1="689.2" y1="130.7" x2="707.9" y2="214.9"/>
	<line class="st0" x1="670.5" y1="214.9" x2="679.8" y2="214.9"/>
	<line class="st0" x1="72.2" y1="280.3" x2="81.6" y2="308.3"/>
	<line class="st0" x1="81.6" y1="280.3" x2="90.8" y2="308.3"/>
	<line class="st0" x1="72.2" y1="280.3" x2="81.6" y2="280.3"/>
	<line class="st0" x1="81.6" y1="308.3" x2="90.8" y2="308.3"/>
	<line class="st0" x1="72.2" y1="252.2" x2="81.6" y2="224.2"/>
	<line class="st0" x1="81.6" y1="252.2" x2="90.8" y2="224.2"/>
	<line class="st0" x1="72.2" y1="252.2" x2="81.6" y2="252.2"/>
	<line class="st0" x1="81.6" y1="224.2" x2="90.8" y2="224.2"/>
	<line class="st0" x1="62.9" y1="280.3" x2="53.5" y2="308.3"/>
	<line class="st0" x1="53.5" y1="280.3" x2="44.1" y2="308.3"/>
	<line class="st0" x1="62.9" y1="280.3" x2="53.5" y2="280.3"/>
	<line class="st0" x1="53.5" y1="308.3" x2="44.1" y2="308.3"/>
	<line class="st0" x1="62.9" y1="252.2" x2="53.5" y2="224.2"/>
	<line class="st0" x1="53.5" y1="252.2" x2="44.1" y2="224.2"/>
	<line class="st0" x1="62.9" y1="252.2" x2="53.5" y2="252.2"/>
	<line class="st0" x1="53.5" y1="224.2" x2="44.1" y2="224.2"/>
	<line class="st0" x1="137.7" y1="252.2" x2="147" y2="224.2"/>
	<line class="st0" x1="147" y1="252.2" x2="156.3" y2="224.2"/>
	<line class="st0" x1="137.7" y1="252.2" x2="147" y2="252.2"/>
	<line class="st0" x1="147" y1="224.2" x2="156.3" y2="224.2"/>
	<line class="st0" x1="128.3" y1="252.2" x2="118.9" y2="224.2"/>
	<line class="st0" x1="118.9" y1="252.2" x2="109.6" y2="224.2"/>
	<line class="st0" x1="128.3" y1="252.2" x2="118.9" y2="252.2"/>
	<line class="st0" x1="118.9" y1="224.2" x2="109.6" y2="224.2"/>
	<polygon class="st1" points="132.9,308.3 128.3,308.3 128.3,261.6 137.7,261.6 137.7,308.3 	"/>
	<polygon class="st0" points="132.9,308.3 128.3,308.3 128.3,261.6 137.7,261.6 137.7,308.3 	"/>
	<line class="st0" x1="212.5" y1="224.2" x2="203.1" y2="224.2"/>
	<line class="st0" x1="175" y1="308.3" x2="212.5" y2="224.2"/>
	<line class="st0" x1="165.6" y1="308.3" x2="203.1" y2="224.2"/>
	<line class="st0" x1="175" y1="308.3" x2="165.6" y2="308.3"/>
	<line class="st0" x1="165.6" y1="224.2" x2="175" y2="224.2"/>
	<line class="st0" x1="203.1" y1="308.3" x2="165.6" y2="224.2"/>
	<line class="st0" x1="212.5" y1="308.3" x2="175" y2="224.2"/>
	<line class="st0" x1="203.1" y1="308.3" x2="212.5" y2="308.3"/>
	<line class="st0" x1="268.5" y1="224.2" x2="259.2" y2="224.2"/>
	<line class="st0" x1="249.8" y1="266.3" x2="268.5" y2="224.2"/>
	<line class="st0" x1="240.4" y1="266.3" x2="259.2" y2="224.2"/>
	<line class="st0" x1="221.8" y1="224.2" x2="231.1" y2="224.2"/>
	<line class="st0" x1="240.4" y1="266.3" x2="221.8" y2="224.2"/>
	<line class="st0" x1="249.8" y1="266.3" x2="231.1" y2="224.2"/>
	<polygon class="st1" points="245.2,308.3 240.4,308.3 240.4,266.3 249.8,266.3 249.8,308.3 	"/>
	<polygon class="st0" points="245.2,308.3 240.4,308.3 240.4,266.3 249.8,266.3 249.8,308.3 	"/>
	<line class="st0" x1="324.6" y1="224.2" x2="315.2" y2="224.2"/>
	<line class="st0" x1="287.3" y1="308.3" x2="324.6" y2="224.2"/>
	<line class="st0" x1="277.9" y1="308.3" x2="315.2" y2="224.2"/>
	<line class="st0" x1="287.3" y1="308.3" x2="277.9" y2="308.3"/>
	<line class="st0" x1="277.9" y1="224.2" x2="287.3" y2="224.2"/>
	<line class="st0" x1="315.2" y1="308.3" x2="296.5" y2="266.3"/>
	<line class="st0" x1="324.6" y1="308.3" x2="305.9" y2="266.3"/>
	<line class="st0" x1="315.2" y1="308.3" x2="324.6" y2="308.3"/>
	<polygon class="st1" points="282.5,308.3 277.9,308.3 277.9,224.2 287.3,224.2 287.3,308.3 	"/>
	<polygon class="st0" points="282.5,308.3 277.9,308.3 277.9,224.2 287.3,224.2 287.3,308.3 	"/>
	<line class="st0" x1="380.7" y1="224.2" x2="371.3" y2="224.2"/>
	<line class="st0" x1="343.3" y1="308.3" x2="380.7" y2="224.2"/>
	<line class="st0" x1="334" y1="308.3" x2="371.3" y2="224.2"/>
	<line class="st0" x1="343.3" y1="308.3" x2="334" y2="308.3"/>
	<polygon class="st1" points="352.7,233.6 334,233.6 334,224.2 371.3,224.2 371.3,233.6 	"/>
	<polygon class="st0" points="352.7,233.6 334,233.6 334,224.2 371.3,224.2 371.3,233.6 	"/>
	<polygon class="st1" points="362.1,308.3 343.3,308.3 343.3,299 380.7,299 380.7,308.3 	"/>
	<polygon class="st0" points="362.1,308.3 343.3,308.3 343.3,299 380.7,299 380.7,308.3 	"/>
	<path class="st0" d="M390,284.9c0,12.9,10.4,23.3,23.3,23.3s23.3-10.4,23.3-23.3"/>
	<path class="st0" d="M399.4,284.9c0,7.8,6.3,14.1,14,14.1c7.8,0,14.1-6.3,14.1-14.1"/>
	<polygon class="st1" points="394.8,284.9 390,284.9 390,247.6 399.4,247.6 399.4,284.9 	"/>
	<polygon class="st0" points="394.8,284.9 390,284.9 390,247.6 399.4,247.6 399.4,284.9 	"/>
	<polygon class="st1" points="432.1,284.9 427.5,284.9 427.5,247.6 436.7,247.6 436.7,284.9 	"/>
	<polygon class="st0" points="432.1,284.9 427.5,284.9 427.5,247.6 436.7,247.6 436.7,284.9 	"/>
	<path class="st0" d="M390,247.6c0-12.9,10.4-23.3,23.3-23.3s23.3,10.4,23.3,23.3"/>
	<path class="st0" d="M399.4,247.6c0-7.8,6.3-14,14-14c7.8,0,14.1,6.2,14.1,14"/>
	<path class="st0" d="M446.1,284.9c0,12.9,10.6,23.3,23.3,23.3c12.9,0,23.5-10.4,23.5-23.3"/>
	<path class="st0" d="M455.4,284.9c0,7.8,6.3,14.1,14,14.1c7.8,0,14.1-6.3,14.1-14.1"/>
	<polygon class="st1" points="450.8,284.9 446.1,284.9 446.1,247.6 455.4,247.6 455.4,284.9 	"/>
	<polygon class="st0" points="450.8,284.9 446.1,284.9 446.1,247.6 455.4,247.6 455.4,284.9 	"/>
	<polygon class="st1" points="488.2,284.9 483.5,284.9 483.5,247.6 492.9,247.6 492.9,284.9 	"/>
	<polygon class="st0" points="488.2,284.9 483.5,284.9 483.5,247.6 492.9,247.6 492.9,284.9 	"/>
	<path class="st0" d="M446.1,247.6c0-12.9,10.6-23.3,23.3-23.3c12.9,0,23.5,10.4,23.5,23.3"/>
	<path class="st0" d="M455.4,247.6c0-7.8,6.3-14,14-14c7.8,0,14.1,6.2,14.1,14"/>
	<line class="st0" x1="483.5" y1="308.3" x2="464.8" y2="266.3"/>
	<line class="st0" x1="492.9" y1="308.3" x2="474.2" y2="266.3"/>
	<line class="st0" x1="483.5" y1="308.3" x2="492.9" y2="308.3"/>
	<line class="st0" x1="464.8" y1="266.3" x2="474.2" y2="266.3"/>
	<line class="st0" x1="502.3" y1="224.2" x2="511.5" y2="224.2"/>
	<line class="st0" x1="539.6" y1="308.3" x2="502.3" y2="224.2"/>
	<line class="st0" x1="549" y1="308.3" x2="511.5" y2="224.2"/>
	<line class="st0" x1="539.6" y1="308.3" x2="549" y2="308.3"/>
	<line class="st0" x1="549" y1="224.2" x2="539.6" y2="224.2"/>
	<polygon class="st1" points="544.2,308.3 539.6,308.3 539.6,224.2 549,224.2 549,308.3 	"/>
	<polygon class="st0" points="544.2,308.3 539.6,308.3 539.6,224.2 549,224.2 549,308.3 	"/>
	<polygon class="st1" points="506.9,308.3 502.3,308.3 502.3,224.2 511.5,224.2 511.5,308.3 	"/>
	<polygon class="st0" points="506.9,308.3 502.3,308.3 502.3,224.2 511.5,224.2 511.5,308.3 	"/>
	<line class="st0" x1="558.3" y1="224.2" x2="567.7" y2="224.2"/>
	<line class="st0" x1="595.7" y1="308.3" x2="558.3" y2="224.2"/>
	<line class="st0" x1="605" y1="308.3" x2="567.7" y2="224.2"/>
	<line class="st0" x1="595.7" y1="308.3" x2="605" y2="308.3"/>
	<line class="st0" x1="605" y1="224.2" x2="595.7" y2="224.2"/>
	<polygon class="st1" points="600.4,308.3 595.7,308.3 595.7,224.2 605,224.2 605,308.3 	"/>
	<polygon class="st0" points="600.4,308.3 595.7,308.3 595.7,224.2 605,224.2 605,308.3 	"/>
	<polygon class="st1" points="563,308.3 558.3,308.3 558.3,224.2 567.7,224.2 567.7,308.3 	"/>
	<polygon class="st0" points="563,308.3 558.3,308.3 558.3,224.2 567.7,224.2 567.7,308.3 	"/>
	<line class="st0" x1="595.7" y1="224.2" x2="605" y2="224.2"/>
	<line class="st0" x1="633.1" y1="308.3" x2="595.7" y2="224.2"/>
	<line class="st0" x1="642.4" y1="308.3" x2="605" y2="224.2"/>
	<line class="st0" x1="633.1" y1="308.3" x2="642.4" y2="308.3"/>
	<polygon class="st1" points="656.5,308.3 651.7,308.3 651.7,224.2 661.1,224.2 661.1,308.3 	"/>
	<polygon class="st0" points="656.5,308.3 651.7,308.3 651.7,224.2 661.1,224.2 661.1,308.3 	"/>
	<path class="st0" d="M670.5,280.3c15.4,0,28.1-12.5,28.1-28.1c0-15.4-12.7-28-28.1-28"/>
	<path class="st0" d="M670.5,270.9c10.3,0,18.7-8.4,18.7-18.7c0-10.3-8.4-18.6-18.7-18.6"/>
	<polygon class="st1" points="665.9,233.6 661.1,233.6 661.1,224.2 670.5,224.2 670.5,233.6 	"/>
	<polygon class="st0" points="665.9,233.6 661.1,233.6 661.1,224.2 670.5,224.2 670.5,233.6 	"/>
	<polygon class="st1" points="665.9,280.3 661.1,280.3 661.1,270.9 670.5,270.9 670.5,280.3 	"/>
	<polygon class="st0" points="665.9,280.3 661.1,280.3 661.1,270.9 670.5,270.9 670.5,280.3 	"/>
	<line class="st0" x1="689.2" y1="308.3" x2="651.7" y2="224.2"/>
	<line class="st0" x1="698.6" y1="308.3" x2="661.1" y2="224.2"/>
	<line class="st0" x1="689.2" y1="308.3" x2="698.6" y2="308.3"/>
	<path class="st0" d="M44.1,378.4c0,12.9,10.4,23.3,23.3,23.3s23.3-10.4,23.3-23.3"/>
	<path class="st0" d="M53.5,378.4c0,7.8,6.3,14,14,14c7.8,0,14.1-6.2,14.1-14"/>
	<polygon class="st1" points="48.7,378.4 44.1,378.4 44.1,341 53.5,341 53.5,378.4 	"/>
	<polygon class="st0" points="48.7,378.4 44.1,378.4 44.1,341 53.5,341 53.5,378.4 	"/>
	<polygon class="st1" points="86.2,378.4 81.6,378.4 81.6,341 90.8,341 90.8,378.4 	"/>
	<polygon class="st0" points="86.2,378.4 81.6,378.4 81.6,341 90.8,341 90.8,378.4 	"/>
	<path class="st0" d="M44.1,341c0-12.8,10.4-23.3,23.3-23.3s23.3,10.6,23.3,23.3"/>
	<path class="st0" d="M53.5,341c0-7.7,6.3-14,14-14c7.8,0,14.1,6.3,14.1,14"/>
	<line class="st0" x1="90.8" y1="317.6" x2="81.6" y2="317.6"/>
	<line class="st0" x1="53.5" y1="401.8" x2="90.8" y2="317.6"/>
	<line class="st0" x1="44.1" y1="401.8" x2="81.6" y2="317.6"/>
	<line class="st0" x1="53.5" y1="401.8" x2="44.1" y2="401.8"/>
	<line class="st0" x1="137.7" y1="401.8" x2="128.3" y2="401.8"/>
	<line class="st0" x1="128.3" y1="317.6" x2="137.7" y2="317.6"/>
	<polygon class="st1" points="132.9,401.8 128.3,401.8 128.3,317.6 137.7,317.6 137.7,401.8 	"/>
	<polygon class="st0" points="132.9,401.8 128.3,401.8 128.3,317.6 137.7,317.6 137.7,401.8 	"/>
	<line class="st0" x1="118.9" y1="350.3" x2="137.7" y2="317.6"/>
	<line class="st0" x1="109.6" y1="350.3" x2="128.3" y2="317.6"/>
	<line class="st0" x1="118.9" y1="350.3" x2="109.6" y2="350.3"/>
	<path class="st0" d="M240.4,401.8c12.9,0,23.3-10.4,23.3-23.3c0-12.9-10.4-23.3-23.3-23.3"/>
	<path class="st0" d="M240.4,392.4c7.8,0,14.1-6.2,14.1-14s-6.3-14-14.1-14"/>
	<polygon class="st1" points="238.2,327 221.8,327 221.8,317.6 254.5,317.6 254.5,327 	"/>
	<polygon class="st0" points="238.2,327 221.8,327 221.8,317.6 254.5,317.6 254.5,327 	"/>
	<polygon class="st1" points="238.2,364.5 231.1,364.5 231.1,355.1 245.2,355.1 245.2,364.5 	"/>
	<polygon class="st0" points="238.2,364.5 231.1,364.5 231.1,355.1 245.2,355.1 245.2,364.5 	"/>
	<polygon class="st1" points="184.4,401.8 165.6,401.8 165.6,392.4 203.1,392.4 203.1,401.8 	"/>
	<polygon class="st0" points="184.4,401.8 165.6,401.8 165.6,392.4 203.1,392.4 203.1,401.8 	"/>
	<path class="st0" d="M156.3,341c0-12.8,10.6-23.3,23.5-23.3c12.8,0,23.3,10.6,23.3,23.3"/>
	<path class="st0" d="M165.6,341c0-7.7,6.3-14,14.1-14c7.7,0,14,6.3,14,14"/>
	<line class="st0" x1="165.6" y1="401.8" x2="203.1" y2="341"/>
	<line class="st0" x1="156.3" y1="401.8" x2="193.7" y2="341"/>
	<line class="st0" x1="165.6" y1="401.8" x2="156.3" y2="401.8"/>
	<line class="st0" x1="165.6" y1="341" x2="156.3" y2="341"/>
	<line class="st0" x1="203.1" y1="341" x2="193.7" y2="341"/>
	<line class="st0" x1="240.4" y1="355.1" x2="263.8" y2="317.6"/>
	<line class="st0" x1="231.1" y1="355.1" x2="254.5" y2="317.6"/>
	<line class="st0" x1="263.8" y1="317.6" x2="254.5" y2="317.6"/>
	<path class="st0" d="M217.1,378.4c0,12.9,10.4,23.3,23.3,23.3"/>
	<path class="st0" d="M226.4,378.4c0,7.8,6.3,14,14,14"/>
	<line class="st0" x1="217.1" y1="378.4" x2="226.4" y2="378.4"/>
	<polygon class="st1" points="305.9,373.8 282.5,373.8 282.5,364.5 329.2,364.5 329.2,373.8 	"/>
	<polygon class="st0" points="305.9,373.8 282.5,373.8 282.5,364.5 329.2,364.5 329.2,373.8 	"/>
	<line class="st0" x1="282.5" y1="373.8" x2="301.2" y2="327"/>
	<line class="st0" x1="273.1" y1="373.8" x2="291.9" y2="327"/>
	<line class="st0" x1="282.5" y1="373.8" x2="273.1" y2="373.8"/>
	<line class="st0" x1="301.2" y1="327" x2="291.9" y2="327"/>
	<polygon class="st1" points="315.2,401.8 310.6,401.8 310.6,317.6 320,317.6 320,401.8 	"/>
	<polygon class="st0" points="315.2,401.8 310.6,401.8 310.6,317.6 320,317.6 320,401.8 	"/>
	<path class="st0" d="M362.1,401.8c12.8,0,23.3-10.4,23.3-23.3c0-12.9-10.6-23.3-23.3-23.3"/>
	<path class="st0" d="M362.1,392.4c7.7,0,14-6.2,14-14s-6.3-14-14-14"/>
	<polygon class="st1" points="362.1,327 343.3,327 343.3,317.6 380.7,317.6 380.7,327 	"/>
	<polygon class="st0" points="362.1,327 343.3,327 343.3,317.6 380.7,317.6 380.7,327 	"/>
	<polygon class="st1" points="352.7,364.5 343.3,364.5 343.3,355.1 362.1,355.1 362.1,364.5 	"/>
	<polygon class="st0" points="352.7,364.5 343.3,364.5 343.3,355.1 362.1,355.1 362.1,364.5 	"/>
	<path class="st0" d="M338.6,378.4c0,12.9,10.6,23.3,23.5,23.3"/>
	<path class="st0" d="M347.9,378.4c0,7.8,6.3,14,14.1,14"/>
	<line class="st0" x1="338.6" y1="378.4" x2="347.9" y2="378.4"/>
	<polygon class="st1" points="347.9,364.5 343.3,364.5 343.3,327 352.7,327 352.7,364.5 	"/>
	<polygon class="st0" points="347.9,364.5 343.3,364.5 343.3,327 352.7,327 352.7,364.5 	"/>
	<path class="st0" d="M399.4,378.4c0,12.9,10.4,23.3,23.3,23.3s23.3-10.4,23.3-23.3"/>
	<path class="st0" d="M408.7,378.4c0,7.8,6.2,14,14,14s14-6.2,14-14"/>
	<polygon class="st1" points="404,378.4 399.4,378.4 399.4,341 408.7,341 408.7,378.4 	"/>
	<polygon class="st0" points="404,378.4 399.4,378.4 399.4,341 408.7,341 408.7,378.4 	"/>
	<path class="st0" d="M399.4,341c0-12.8,10.4-23.3,23.3-23.3S446,328.3,446,341"/>
	<path class="st0" d="M408.7,341c0-7.7,6.2-14,14-14s14,6.3,14,14"/>
	<path class="st0" d="M399.4,373.8c0-12.9,10.4-23.5,23.3-23.5s23.3,10.6,23.3,23.5"/>
	<path class="st0" d="M408.7,373.8c0-7.8,6.2-14.1,14-14.1s14,6.3,14,14.1"/>
	<line class="st0" x1="446.1" y1="341" x2="436.7" y2="341"/>
	<polygon class="st1" points="441.5,378.4 436.7,378.4 436.7,373.8 446.1,373.8 446.1,378.4 	"/>
	<polygon class="st0" points="441.5,378.4 436.7,378.4 436.7,373.8 446.1,373.8 446.1,378.4 	"/>
	<line class="st0" x1="502.3" y1="317.6" x2="492.9" y2="317.6"/>
	<line class="st0" x1="464.8" y1="401.8" x2="502.3" y2="317.6"/>
	<line class="st0" x1="455.4" y1="401.8" x2="492.9" y2="317.6"/>
	<line class="st0" x1="464.8" y1="401.8" x2="455.4" y2="401.8"/>
	<polygon class="st1" points="474.2,327 455.4,327 455.4,317.6 492.9,317.6 492.9,327 	"/>
	<polygon class="st0" points="474.2,327 455.4,327 455.4,317.6 492.9,317.6 492.9,327 	"/>
	<path class="st0" d="M535,401.8c-12.9,0-23.5-10.4-23.5-23.3c0-12.9,10.6-23.3,23.5-23.3c12.8,0,23.3,10.4,23.3,23.3
		S547.8,401.8,535,401.8z"/>
	<path class="st0" d="M535,364.5c-12.9,0-23.5-10.6-23.5-23.5c0-12.8,10.6-23.3,23.5-23.3c12.8,0,23.3,10.6,23.3,23.3
		C558.3,353.9,547.8,364.5,535,364.5z"/>
	<path class="st0" d="M535,355.1c-7.8,0-14.1-6.3-14.1-14.1c0-7.7,6.3-14,14.1-14c7.7,0,14,6.3,14,14
		C549,348.8,542.6,355.1,535,355.1z"/>
	<path class="st0" d="M535,392.4c-7.8,0-14.1-6.2-14.1-14s6.3-14,14.1-14c7.7,0,14,6.2,14,14C549,386.2,542.6,392.4,535,392.4z"/>
	<path class="st0" d="M614.4,341c0-12.8-10.4-23.3-23.3-23.3c-12.9,0-23.3,10.6-23.3,23.3"/>
	<path class="st0" d="M605,341c0-7.7-6.3-14-14-14c-7.8,0-14.1,6.3-14.1,14"/>
	<polygon class="st1" points="609.7,341 614.4,341 614.4,378.4 605,378.4 605,341 	"/>
	<polygon class="st0" points="609.7,341 614.4,341 614.4,378.4 605,378.4 605,341 	"/>
	<path class="st0" d="M614.4,378.4c0,12.9-10.4,23.3-23.3,23.3c-12.9,0-23.3-10.4-23.3-23.3"/>
	<path class="st0" d="M605,378.4c0,7.8-6.3,14-14,14c-7.8,0-14.1-6.2-14.1-14"/>
	<path class="st0" d="M614.4,345.7c0,12.9-10.4,23.3-23.3,23.3c-12.9,0-23.3-10.4-23.3-23.3"/>
	<path class="st0" d="M605,345.7c0,7.8-6.3,14-14,14c-7.8,0-14.1-6.2-14.1-14"/>
	<line class="st0" x1="567.7" y1="378.4" x2="576.9" y2="378.4"/>
	<polygon class="st1" points="572.3,341 576.9,341 576.9,345.7 567.7,345.7 567.7,341 	"/>
	<polygon class="st0" points="572.3,341 576.9,341 576.9,345.7 567.7,345.7 567.7,341 	"/>
	<path class="st0" d="M44.1,472c0,12.8,10.4,23.3,23.3,23.3s23.3-10.6,23.3-23.3"/>
	<path class="st0" d="M53.5,472c0,7.7,6.3,14,14,14c7.8,0,14.1-6.3,14.1-14"/>
	<polygon class="st1" points="48.7,472 44.1,472 44.1,434.5 53.5,434.5 53.5,472 	"/>
	<polygon class="st0" points="48.7,472 44.1,472 44.1,434.5 53.5,434.5 53.5,472 	"/>
	<polygon class="st1" points="86.2,472 81.6,472 81.6,434.5 90.8,434.5 90.8,472 	"/>
	<polygon class="st0" points="86.2,472 81.6,472 81.6,434.5 90.8,434.5 90.8,472 	"/>
	<path class="st0" d="M44.1,434.5c0-12.9,10.4-23.3,23.3-23.3s23.3,10.4,23.3,23.3"/>
	<path class="st0" d="M53.5,434.5c0-7.8,6.3-14,14-14c7.8,0,14.1,6.2,14.1,14"/>
	<path class="st0" d="M109.6,472c0,12.8,10.4,23.3,23.3,23.3s23.3-10.6,23.3-23.3"/>
	<path class="st0" d="M118.9,472c0,7.7,6.3,14,14,14c7.8,0,14.1-6.3,14.1-14"/>
	<polygon class="st1" points="151.6,495.3 147,495.3 147,439.3 156.3,439.3 156.3,495.3 	"/>
	<polygon class="st0" points="151.6,495.3 147,495.3 147,439.3 156.3,439.3 156.3,495.3 	"/>
	<path class="st0" d="M109.6,462.6c0-12.9,10.4-23.3,23.3-23.3s23.3,10.4,23.3,23.3"/>
	<path class="st0" d="M118.9,462.6c0-7.8,6.3-14.1,14-14.1c7.8,0,14.1,6.3,14.1,14.1"/>
	<path class="st0" d="M212.5,472c0,12.8-10.6,23.3-23.5,23.3c-12.8,0-23.3-10.6-23.3-23.3"/>
	<path class="st0" d="M203.1,472c0,7.7-6.3,14-14.1,14c-7.7,0-14-6.3-14-14"/>
	<polygon class="st1" points="170.4,495.3 165.6,495.3 165.6,411.2 175,411.2 175,495.3 	"/>
	<polygon class="st0" points="170.4,495.3 165.6,495.3 165.6,411.2 175,411.2 175,495.3 	"/>
	<path class="st0" d="M212.5,462.6c0-12.9-10.6-23.3-23.5-23.3c-12.8,0-23.3,10.4-23.3,23.3"/>
	<path class="st0" d="M203.1,462.6c0-7.8-6.3-14.1-14.1-14.1c-7.7,0-14,6.3-14,14.1"/>
	<polygon class="st1" points="207.7,472 203.1,472 203.1,462.6 212.5,462.6 212.5,472 	"/>
	<polygon class="st0" points="207.7,472 203.1,472 203.1,462.6 212.5,462.6 212.5,472 	"/>
	<path class="st0" d="M221.8,472c0,12.8,10.4,23.3,23.3,23.3c12.8,0,23.3-10.6,23.3-23.3"/>
	<path class="st0" d="M231.1,472c0,7.7,6.3,14,14.1,14c7.7,0,14-6.3,14-14"/>
	<path class="st0" d="M221.8,462.6c0-12.9,10.4-23.3,23.3-23.3c12.8,0,23.3,10.4,23.3,23.3"/>
	<path class="st0" d="M231.1,462.6c0-7.8,6.3-14.1,14.1-14.1c7.7,0,14,6.3,14,14.1"/>
	<polygon class="st1" points="226.4,472 221.8,472 221.8,462.6 231.1,462.6 231.1,472 	"/>
	<polygon class="st0" points="226.4,472 221.8,472 221.8,462.6 231.1,462.6 231.1,472 	"/>
	<line class="st0" x1="259.2" y1="462.6" x2="268.5" y2="462.6"/>
	<line class="st0" x1="259.2" y1="472" x2="268.5" y2="472"/>
	<path class="st0" d="M277.9,472c0,12.8,10.4,23.3,23.3,23.3s23.3-10.6,23.3-23.3"/>
	<path class="st0" d="M287.3,472c0,7.7,6.2,14,14,14s14-6.3,14-14"/>
	<polygon class="st1" points="320,495.3 315.2,495.3 315.2,411.2 324.6,411.2 324.6,495.3 	"/>
	<polygon class="st0" points="320,495.3 315.2,495.3 315.2,411.2 324.6,411.2 324.6,495.3 	"/>
	<path class="st0" d="M277.9,462.6c0-12.9,10.4-23.3,23.3-23.3s23.3,10.4,23.3,23.3"/>
	<path class="st0" d="M287.3,462.6c0-7.8,6.2-14.1,14-14.1s14,6.3,14,14.1"/>
	<polygon class="st1" points="282.5,472 277.9,472 277.9,462.6 287.3,462.6 287.3,472 	"/>
	<polygon class="st0" points="282.5,472 277.9,472 277.9,462.6 287.3,462.6 287.3,472 	"/>
	<path class="st0" d="M334,472c0,12.8,10.4,23.3,23.3,23.3"/>
	<path class="st0" d="M343.3,472c0,7.7,6.2,14,14,14"/>
	<path class="st0" d="M334,462.6c0-12.9,10.4-23.3,23.3-23.3s23.3,10.4,23.3,23.3"/>
	<path class="st0" d="M343.3,462.6c0-7.8,6.2-14.1,14-14.1s14,6.3,14,14.1"/>
	<polygon class="st1" points="357.3,472 334,472 334,462.6 380.7,462.6 380.7,472 	"/>
	<polygon class="st0" points="357.3,472 334,472 334,462.6 380.7,462.6 380.7,472 	"/>
	<line class="st0" x1="371.3" y1="462.6" x2="380.7" y2="462.6"/>
	<line class="st0" x1="371.3" y1="472" x2="380.7" y2="472"/>
	<polygon class="st1" points="369,495.3 357.3,495.3 357.3,486 380.7,486 380.7,495.3 	"/>
	<polygon class="st0" points="369,495.3 357.3,495.3 357.3,486 380.7,486 380.7,495.3 	"/>
	<polygon class="st1" points="394.8,495.3 390,495.3 390,434.5 399.4,434.5 399.4,495.3 	"/>
	<polygon class="st0" points="394.8,495.3 390,495.3 390,434.5 399.4,434.5 399.4,495.3 	"/>
	<path class="st0" d="M390,434.5c0-12.9,10.4-23.3,23.3-23.3"/>
	<path class="st0" d="M399.4,434.5c0-7.8,6.3-14,14-14"/>
	<polygon class="st1" points="418.1,420.5 413.4,420.5 413.4,411.2 422.7,411.2 422.7,420.5 	"/>
	<polygon class="st0" points="418.1,420.5 413.4,420.5 413.4,411.2 422.7,411.2 422.7,420.5 	"/>
	<polygon class="st1" points="408.7,462.6 399.4,462.6 399.4,453.2 418.1,453.2 418.1,462.6 	"/>
	<polygon class="st0" points="408.7,462.6 399.4,462.6 399.4,453.2 418.1,453.2 418.1,462.6 	"/>
	<path class="st0" d="M427.5,462.6c0-12.9,10.4-23.3,23.3-23.3s23.3,10.4,23.3,23.3"/>
	<path class="st0" d="M436.7,462.6c0-7.8,6.3-14.1,14.1-14.1c7.7,0,14,6.3,14,14.1"/>
	<polygon class="st1" points="469.4,439.3 474.2,439.3 474.2,504.7 464.8,504.7 464.8,439.3 	"/>
	<polygon class="st0" points="469.4,439.3 474.2,439.3 474.2,504.7 464.8,504.7 464.8,439.3 	"/>
	<path class="st0" d="M427.5,472c0,12.8,10.4,23.3,23.3,23.3s23.3-10.6,23.3-23.3"/>
	<path class="st0" d="M436.7,472c0,7.7,6.3,14,14.1,14c7.7,0,14-6.3,14-14"/>
	<polygon class="st1" points="432.1,462.6 436.7,462.6 436.7,472 427.5,472 427.5,462.6 	"/>
	<polygon class="st0" points="432.1,462.6 436.7,462.6 436.7,472 427.5,472 427.5,462.6 	"/>
	<path class="st0" d="M427.5,504.7c0,12.8,10.4,23.3,23.3,23.3s23.3-10.6,23.3-23.3"/>
	<path class="st0" d="M436.7,504.7c0,7.7,6.3,14,14.1,14c7.7,0,14-6.3,14-14"/>
	<line class="st0" x1="427.5" y1="504.7" x2="436.7" y2="504.7"/>
	<polygon class="st1" points="114.3,472 109.6,472 109.6,462.6 118.9,462.6 118.9,472 	"/>
	<polygon class="st0" points="114.3,472 109.6,472 109.6,462.6 118.9,462.6 118.9,472 	"/>
	<polygon class="st1" points="488.2,495.3 483.5,495.3 483.5,411.2 492.9,411.2 492.9,495.3 	"/>
	<polygon class="st0" points="488.2,495.3 483.5,495.3 483.5,411.2 492.9,411.2 492.9,495.3 	"/>
	<path class="st0" d="M530.2,462.6c0-12.9-10.4-23.3-23.3-23.3c-12.9,0-23.3,10.4-23.3,23.3"/>
	<path class="st0" d="M520.9,462.6c0-7.8-6.2-14.1-14-14.1s-14,6.3-14,14.1"/>
	<polygon class="st1" points="525.6,495.3 520.9,495.3 520.9,462.6 530.2,462.6 530.2,495.3 	"/>
	<polygon class="st0" points="525.6,495.3 520.9,495.3 520.9,462.6 530.2,462.6 530.2,495.3 	"/>
	<polygon class="st1" points="544.2,495.3 539.6,495.3 539.6,439.3 549,439.3 549,495.3 	"/>
	<polygon class="st0" points="544.2,495.3 539.6,495.3 539.6,439.3 549,439.3 549,495.3 	"/>
	<polygon class="st1" points="563,439.3 567.7,439.3 567.7,504.7 558.3,504.7 558.3,439.3 	"/>
	<polygon class="st0" points="563,439.3 567.7,439.3 567.7,504.7 558.3,504.7 558.3,439.3 	"/>
	<path class="st0" d="M544.2,528c12.9,0,23.5-10.6,23.5-23.3"/>
	<path class="st0" d="M544.2,518.7c7.8,0,14.1-6.3,14.1-14"/>
	<line class="st0" x1="544.2" y1="528" x2="544.2" y2="518.7"/>
	<polygon class="st1" points="581.7,495.3 576.9,495.3 576.9,411.2 586.3,411.2 586.3,495.3 	"/>
	<polygon class="st0" points="581.7,495.3 576.9,495.3 576.9,411.2 586.3,411.2 586.3,495.3 	"/>
	<line class="st0" x1="586.3" y1="495.3" x2="614.4" y2="439.3"/>
	<line class="st0" x1="576.9" y1="495.3" x2="605" y2="439.3"/>
	<line class="st0" x1="600.4" y1="457.9" x2="619" y2="495.3"/>
	<line class="st0" x1="595.7" y1="467.2" x2="609.7" y2="495.3"/>
	<line class="st0" x1="609.7" y1="495.3" x2="619" y2="495.3"/>
	<line class="st0" x1="605" y1="439.3" x2="614.4" y2="439.3"/>
	<polygon class="st1" points="628.4,495.3 623.8,495.3 623.8,411.2 633.1,411.2 633.1,495.3 	"/>
	<polygon class="st0" points="628.4,495.3 623.8,495.3 623.8,411.2 633.1,411.2 633.1,495.3 	"/>
	<polygon class="st1" points="647.1,495.3 642.4,495.3 642.4,439.3 651.7,439.3 651.7,495.3 	"/>
	<polygon class="st0" points="647.1,495.3 642.4,495.3 642.4,439.3 651.7,439.3 651.7,495.3 	"/>
	<path class="st0" d="M689.2,462.6c0-12.9-10.6-23.3-23.3-23.3c-12.9,0-23.5,10.4-23.5,23.3"/>
	<path class="st0" d="M679.8,462.6c0-7.8-6.3-14.1-14-14.1c-7.8,0-14.1,6.3-14.1,14.1"/>
	<polygon class="st1" points="684.5,495.3 679.8,495.3 679.8,462.6 689.2,462.6 689.2,495.3 	"/>
	<polygon class="st0" points="684.5,495.3 679.8,495.3 679.8,462.6 689.2,462.6 689.2,495.3 	"/>
	<path class="st0" d="M726.5,462.6c0-12.9-10.4-23.3-23.3-23.3c-12.9,0-23.3,10.4-23.3,23.3"/>
	<path class="st0" d="M717.2,462.6c0-7.8-6.2-14.1-14-14.1s-14,6.3-14,14.1"/>
	<polygon class="st1" points="721.9,495.3 717.2,495.3 717.2,462.6 726.5,462.6 726.5,495.3 	"/>
	<polygon class="st0" points="721.9,495.3 717.2,495.3 717.2,462.6 726.5,462.6 726.5,495.3 	"/>
	<path class="st0" d="M44.1,602.8c0,12.9,10.4,23.3,23.3,23.3s23.3-10.4,23.3-23.3"/>
	<path class="st0" d="M53.5,602.8c0,7.7,6.3,14,14,14c7.8,0,14.1-6.3,14.1-14"/>
	<polygon class="st1" points="48.7,602.8 44.1,602.8 44.1,565.4 53.5,565.4 53.5,602.8 	"/>
	<polygon class="st0" points="48.7,602.8 44.1,602.8 44.1,565.4 53.5,565.4 53.5,602.8 	"/>
	<polygon class="st1" points="86.2,602.8 81.6,602.8 81.6,565.4 90.8,565.4 90.8,602.8 	"/>
	<polygon class="st0" points="86.2,602.8 81.6,602.8 81.6,565.4 90.8,565.4 90.8,602.8 	"/>
	<path class="st0" d="M44.1,565.4c0-12.9,10.4-23.3,23.3-23.3s23.3,10.4,23.3,23.3"/>
	<path class="st0" d="M53.5,565.4c0-7.7,6.3-14,14-14c7.8,0,14.1,6.3,14.1,14"/>
	<polygon class="st1" points="114.3,626.2 109.6,626.2 109.6,570.1 118.9,570.1 118.9,626.2 	"/>
	<polygon class="st0" points="114.3,626.2 109.6,626.2 109.6,570.1 118.9,570.1 118.9,626.2 	"/>
	<path class="st0" d="M156.3,593.5c0-12.9-10.4-23.3-23.3-23.3s-23.3,10.4-23.3,23.3"/>
	<path class="st0" d="M147,593.5c0-7.8-6.3-14-14.1-14c-7.7,0-14,6.2-14,14"/>
	<polygon class="st1" points="151.6,626.2 147,626.2 147,593.5 156.3,593.5 156.3,626.2 	"/>
	<polygon class="st0" points="151.6,626.2 147,626.2 147,593.5 156.3,593.5 156.3,626.2 	"/>
	<path class="st0" d="M165.6,602.8c0,12.9,10.6,23.3,23.3,23.3c12.9,0,23.5-10.4,23.5-23.3"/>
	<path class="st0" d="M175,602.8c0,7.7,6.3,14,14,14c7.8,0,14.1-6.3,14.1-14"/>
	<polygon class="st1" points="170.4,602.8 165.6,602.8 165.6,593.5 175,593.5 175,602.8 	"/>
	<polygon class="st0" points="170.4,602.8 165.6,602.8 165.6,593.5 175,593.5 175,602.8 	"/>
	<polygon class="st1" points="207.7,602.8 203.1,602.8 203.1,593.5 212.5,593.5 212.5,602.8 	"/>
	<polygon class="st0" points="207.7,602.8 203.1,602.8 203.1,593.5 212.5,593.5 212.5,602.8 	"/>
	<path class="st0" d="M165.6,593.5c0-12.9,10.6-23.3,23.3-23.3c12.9,0,23.5,10.4,23.5,23.3"/>
	<path class="st0" d="M175,593.5c0-7.8,6.3-14,14-14c7.8,0,14.1,6.2,14.1,14"/>
	<path class="st0" d="M268.5,593.5c0-12.9-10.6-23.3-23.3-23.3c-12.9,0-23.3,10.4-23.3,23.3"/>
	<path class="st0" d="M259.2,593.5c0-7.8-6.3-14-14-14c-7.8,0-14.1,6.2-14.1,14"/>
	<polygon class="st1" points="226.4,570.1 231.1,570.1 231.1,654.2 221.8,654.2 221.8,570.1 	"/>
	<polygon class="st0" points="226.4,570.1 231.1,570.1 231.1,654.2 221.8,654.2 221.8,570.1 	"/>
	<path class="st0" d="M268.5,602.8c0,12.9-10.6,23.3-23.3,23.3c-12.9,0-23.3-10.4-23.3-23.3"/>
	<path class="st0" d="M259.2,602.8c0,7.7-6.3,14-14,14c-7.8,0-14.1-6.3-14.1-14"/>
	<polygon class="st1" points="263.8,593.5 268.5,593.5 268.5,602.8 259.2,602.8 259.2,593.5 	"/>
	<polygon class="st0" points="263.8,593.5 268.5,593.5 268.5,602.8 259.2,602.8 259.2,593.5 	"/>
	<path class="st0" d="M277.9,593.5c0-12.9,10.4-23.3,23.3-23.3s23.3,10.4,23.3,23.3"/>
	<path class="st0" d="M287.3,593.5c0-7.8,6.2-14,14-14s14,6.2,14,14"/>
	<polygon class="st1" points="320,570.1 324.6,570.1 324.6,654.2 315.2,654.2 315.2,570.1 	"/>
	<polygon class="st0" points="320,570.1 324.6,570.1 324.6,654.2 315.2,654.2 315.2,570.1 	"/>
	<path class="st0" d="M277.9,602.8c0,12.9,10.4,23.3,23.3,23.3s23.3-10.4,23.3-23.3"/>
	<path class="st0" d="M287.3,602.8c0,7.7,6.2,14,14,14s14-6.3,14-14"/>
	<polygon class="st1" points="282.5,593.5 287.3,593.5 287.3,602.8 277.9,602.8 277.9,593.5 	"/>
	<polygon class="st0" points="282.5,593.5 287.3,593.5 287.3,602.8 277.9,602.8 277.9,593.5 	"/>
	<polygon class="st1" points="338.6,626.2 334,626.2 334,570.1 343.3,570.1 343.3,626.2 	"/>
	<polygon class="st0" points="338.6,626.2 334,626.2 334,570.1 343.3,570.1 343.3,626.2 	"/>
	<path class="st0" d="M357.3,570.1c-12.9,0-23.3,10.4-23.3,23.3"/>
	<path class="st0" d="M357.3,579.5c-7.8,0-14,6.2-14,14"/>
	<polygon class="st1" points="362.1,579.5 357.3,579.5 357.3,570.1 366.7,570.1 366.7,579.5 	"/>
	<polygon class="st0" points="362.1,579.5 357.3,579.5 357.3,570.1 366.7,570.1 366.7,579.5 	"/>
	<path class="st0" d="M404,626.2c12.9,0,23.5-10.4,23.5-23.3"/>
	<path class="st0" d="M404,616.8c7.8,0,14.1-6.3,14.1-14"/>
	<path class="st0" d="M380.7,593.5c0-12.9,10.6-23.3,23.3-23.3"/>
	<path class="st0" d="M390,593.5c0-7.8,6.3-14,14-14"/>
	<polygon class="st1" points="404,602.8 380.7,602.8 380.7,593.5 427.5,593.5 427.5,602.8 	"/>
	<polygon class="st0" points="404,602.8 380.7,602.8 380.7,593.5 427.5,593.5 427.5,602.8 	"/>
	<line class="st0" x1="418.1" y1="593.5" x2="427.5" y2="593.5"/>
	<line class="st0" x1="418.1" y1="602.8" x2="427.5" y2="602.8"/>
	<polygon class="st1" points="415.7,579.5 404,579.5 404,570.1 427.5,570.1 427.5,579.5 	"/>
	<polygon class="st0" points="415.7,579.5 404,579.5 404,570.1 427.5,570.1 427.5,579.5 	"/>
	<polygon class="st1" points="392.4,626.2 380.7,626.2 380.7,616.8 404,616.8 404,626.2 	"/>
	<polygon class="st0" points="392.4,626.2 380.7,626.2 380.7,616.8 404,616.8 404,626.2 	"/>
	<polygon class="st1" points="441.5,542 446.1,542 446.1,602.8 436.7,602.8 436.7,542 	"/>
	<polygon class="st0" points="441.5,542 446.1,542 446.1,602.8 436.7,602.8 436.7,542 	"/>
	<path class="st0" d="M436.7,602.8c0,12.9,10.6,23.3,23.5,23.3"/>
	<path class="st0" d="M446.1,602.8c0,7.7,6.3,14,14.1,14"/>
	<polygon class="st1" points="464.8,616.8 469.4,616.8 469.4,626.2 460.2,626.2 460.2,616.8 	"/>
	<polygon class="st0" points="464.8,616.8 469.4,616.8 469.4,626.2 460.2,626.2 460.2,616.8 	"/>
	<polygon class="st1" points="455.4,570.1 464.8,570.1 464.8,579.5 446.1,579.5 446.1,570.1 	"/>
	<polygon class="st0" points="455.4,570.1 464.8,570.1 464.8,579.5 446.1,579.5 446.1,570.1 	"/>
	<path class="st0" d="M474.2,602.8c0,12.9,10.4,23.3,23.3,23.3s23.3-10.4,23.3-23.3"/>
	<path class="st0" d="M483.5,602.8c0,7.7,6.2,14,14,14s14-6.3,14-14"/>
	<polygon class="st1" points="478.8,602.8 474.2,602.8 474.2,570.1 483.5,570.1 483.5,602.8 	"/>
	<polygon class="st0" points="478.8,602.8 474.2,602.8 474.2,570.1 483.5,570.1 483.5,602.8 	"/>
	<polygon class="st1" points="516.3,602.8 511.5,602.8 511.5,570.1 520.9,570.1 520.9,602.8 	"/>
	<polygon class="st0" points="516.3,602.8 511.5,602.8 511.5,570.1 520.9,570.1 520.9,602.8 	"/>
	<line class="st0" x1="563" y1="626.2" x2="586.3" y2="570.1"/>
	<line class="st0" x1="553.6" y1="626.2" x2="576.9" y2="570.1"/>
	<line class="st0" x1="576.9" y1="570.1" x2="586.3" y2="570.1"/>
	<line class="st0" x1="553.6" y1="626.2" x2="530.2" y2="570.1"/>
	<line class="st0" x1="563" y1="626.2" x2="539.6" y2="570.1"/>
	<line class="st0" x1="539.6" y1="570.1" x2="530.2" y2="570.1"/>
	<line class="st0" x1="553.6" y1="626.2" x2="563" y2="626.2"/>
	<line class="st0" x1="628.4" y1="626.2" x2="651.7" y2="570.1"/>
	<line class="st0" x1="619" y1="626.2" x2="642.4" y2="570.1"/>
	<line class="st0" x1="642.4" y1="570.1" x2="651.7" y2="570.1"/>
	<line class="st0" x1="619" y1="626.2" x2="595.7" y2="570.1"/>
	<line class="st0" x1="628.4" y1="626.2" x2="605" y2="570.1"/>
	<line class="st0" x1="605" y1="570.1" x2="595.7" y2="570.1"/>
	<line class="st0" x1="619" y1="626.2" x2="628.4" y2="626.2"/>
	<line class="st0" x1="651.7" y1="626.2" x2="675.2" y2="570.1"/>
	<line class="st0" x1="642.4" y1="626.2" x2="665.9" y2="570.1"/>
	<line class="st0" x1="665.9" y1="570.1" x2="675.2" y2="570.1"/>
	<line class="st0" x1="642.4" y1="626.2" x2="619" y2="570.1"/>
	<line class="st0" x1="651.7" y1="626.2" x2="628.4" y2="570.1"/>
	<line class="st0" x1="628.4" y1="570.1" x2="619" y2="570.1"/>
	<line class="st0" x1="642.4" y1="626.2" x2="651.7" y2="626.2"/>
	<line class="st0" x1="698.6" y1="626.2" x2="726.5" y2="570.1"/>
	<line class="st0" x1="689.2" y1="626.2" x2="717.2" y2="570.1"/>
	<line class="st0" x1="689.2" y1="626.2" x2="698.6" y2="626.2"/>
	<line class="st0" x1="717.2" y1="570.1" x2="726.5" y2="570.1"/>
	<line class="st0" x1="717.2" y1="626.2" x2="689.2" y2="570.1"/>
	<line class="st0" x1="726.5" y1="626.2" x2="698.6" y2="570.1"/>
	<line class="st0" x1="726.5" y1="626.2" x2="717.2" y2="626.2"/>
	<line class="st0" x1="698.6" y1="570.1" x2="689.2" y2="570.1"/>
	<line class="st0" x1="749.9" y1="649.5" x2="782.6" y2="570.1"/>
	<line class="st0" x1="740.7" y1="649.5" x2="773.4" y2="570.1"/>
	<line class="st0" x1="773.4" y1="570.1" x2="782.6" y2="570.1"/>
	<line class="st0" x1="759.3" y1="616.8" x2="735.9" y2="570.1"/>
	<line class="st0" x1="764" y1="607.5" x2="745.3" y2="570.1"/>
	<line class="st0" x1="745.3" y1="570.1" x2="735.9" y2="570.1"/>
	<line class="st0" x1="740.7" y1="649.5" x2="749.9" y2="649.5"/>
	<line class="st0" x1="810.7" y1="626.2" x2="838.8" y2="570.1"/>
	<line class="st0" x1="801.3" y1="626.2" x2="829.4" y2="570.1"/>
	<line class="st0" x1="801.3" y1="626.2" x2="810.7" y2="626.2"/>
	<line class="st0" x1="829.4" y1="570.1" x2="838.8" y2="570.1"/>
	<line class="st0" x1="838.8" y1="626.2" x2="829.4" y2="626.2"/>
	<line class="st0" x1="810.7" y1="570.1" x2="801.3" y2="570.1"/>
	<polygon class="st1" points="815.4,570.1 829.4,570.1 829.4,579.5 801.3,579.5 801.3,570.1 	"/>
	<polygon class="st0" points="815.4,570.1 829.4,570.1 829.4,579.5 801.3,579.5 801.3,570.1 	"/>
	<polygon class="st1" points="824.7,616.8 838.8,616.8 838.8,626.2 810.7,626.2 810.7,616.8 	"/>
	<polygon class="st0" points="824.7,616.8 838.8,616.8 838.8,626.2 810.7,626.2 810.7,616.8 	"/>
	<polygon class="st1" points="544.2,429.9 539.6,429.9 539.6,420.5 549,420.5 549,429.9 	"/>
	<polygon class="st0" points="544.2,429.9 539.6,429.9 539.6,420.5 549,420.5 549,429.9 	"/>
	<polygon class="st1" points="563,429.9 558.3,429.9 558.3,420.5 567.7,420.5 567.7,429.9 	"/>
	<polygon class="st0" points="563,429.9 558.3,429.9 558.3,420.5 567.7,420.5 567.7,429.9 	"/>
	<path class="st0" d="M735.9,472c0,12.8,10.6,23.3,23.3,23.3c12.9,0,23.3-10.6,23.3-23.3"/>
	<path class="st0" d="M745.3,472c0,7.7,6.3,14,14,14c7.8,0,14.1-6.3,14.1-14"/>
	<polygon class="st1" points="778,495.3 773.4,495.3 773.4,439.3 782.6,439.3 782.6,495.3 	"/>
	<polygon class="st0" points="778,495.3 773.4,495.3 773.4,439.3 782.6,439.3 782.6,495.3 	"/>
	<path class="st0" d="M735.9,462.6c0-12.9,10.6-23.3,23.3-23.3c12.9,0,23.3,10.4,23.3,23.3"/>
	<path class="st0" d="M745.3,462.6c0-7.8,6.3-14.1,14-14.1c7.8,0,14.1,6.3,14.1,14.1"/>
	<polygon class="st1" points="740.7,472 735.9,472 735.9,462.6 745.3,462.6 745.3,472 	"/>
	<polygon class="st0" points="740.7,472 735.9,472 735.9,462.6 745.3,462.6 745.3,472 	"/>
	<polygon class="st1" points="759.3,434.5 735.9,434.5 735.9,425.1 782.6,425.1 782.6,434.5 	"/>
	<polygon class="st0" points="759.3,434.5 735.9,434.5 735.9,425.1 782.6,425.1 782.6,434.5 	"/>
	<path class="st0" d="M792,472c0,12.8,10.6,23.3,23.5,23.3"/>
	<path class="st0" d="M801.3,472c0,7.7,6.3,14,14.1,14"/>
	<path class="st0" d="M792,462.6c0-12.9,10.6-23.3,23.5-23.3c12.8,0,23.3,10.4,23.3,23.3"/>
	<path class="st0" d="M801.3,462.6c0-7.8,6.3-14.1,14.1-14.1c7.7,0,14,6.3,14,14.1"/>
	<polygon class="st1" points="815.4,472 792,472 792,462.6 838.8,462.6 838.8,472 	"/>
	<polygon class="st0" points="815.4,472 792,472 792,462.6 838.8,462.6 838.8,472 	"/>
	<line class="st0" x1="829.4" y1="462.6" x2="838.8" y2="462.6"/>
	<line class="st0" x1="829.4" y1="472" x2="838.8" y2="472"/>
	<polygon class="st1" points="827.1,495.3 815.4,495.3 815.4,486 838.8,486 838.8,495.3 	"/>
	<polygon class="st0" points="827.1,495.3 815.4,495.3 815.4,486 838.8,486 838.8,495.3 	"/>
	<polygon class="st1" points="815.4,434.5 792,434.5 792,425.1 838.8,425.1 838.8,434.5 	"/>
	<polygon class="st0" points="815.4,434.5 792,434.5 792,425.1 838.8,425.1 838.8,434.5 	"/>
	<path class="st0" d="M848.2,472c0,12.8,10.4,23.3,23.3,23.3c12.9,0,23.3-10.6,23.3-23.3"/>
	<path class="st0" d="M857.4,472c0,7.7,6.3,14,14.1,14c7.7,0,14-6.3,14-14"/>
	<polygon class="st1" points="852.8,472 848.2,472 848.2,462.6 857.4,462.6 857.4,472 	"/>
	<polygon class="st0" points="852.8,472 848.2,472 848.2,462.6 857.4,462.6 857.4,472 	"/>
	<polygon class="st1" points="890.1,472 885.5,472 885.5,462.6 894.9,462.6 894.9,472 	"/>
	<polygon class="st0" points="890.1,472 885.5,472 885.5,462.6 894.9,462.6 894.9,472 	"/>
	<path class="st0" d="M848.2,462.6c0-12.9,10.4-23.3,23.3-23.3c12.9,0,23.3,10.4,23.3,23.3"/>
	<path class="st0" d="M857.4,462.6c0-7.8,6.3-14.1,14.1-14.1c7.7,0,14,6.3,14,14.1"/>
	<polygon class="st1" points="871.5,434.5 848.2,434.5 848.2,425.1 894.9,425.1 894.9,434.5 	"/>
	<polygon class="st0" points="871.5,434.5 848.2,434.5 848.2,425.1 894.9,425.1 894.9,434.5 	"/>
	<path class="st0" d="M904.2,472c0,12.8,10.4,23.3,23.3,23.3c12.9,0,23.3-10.6,23.3-23.3"/>
	<path class="st0" d="M913.6,472c0,7.7,6.2,14,14,14s14-6.3,14-14"/>
	<polygon class="st1" points="908.8,472 904.2,472 904.2,439.3 913.6,439.3 913.6,472 	"/>
	<polygon class="st0" points="908.8,472 904.2,472 904.2,439.3 913.6,439.3 913.6,472 	"/>
	<polygon class="st1" points="946.3,472 941.6,472 941.6,439.3 950.9,439.3 950.9,472 	"/>
	<polygon class="st0" points="946.3,472 941.6,472 941.6,439.3 950.9,439.3 950.9,472 	"/>
	<polygon class="st1" points="927.6,434.5 904.2,434.5 904.2,425.1 950.9,425.1 950.9,434.5 	"/>
	<polygon class="st0" points="927.6,434.5 904.2,434.5 904.2,425.1 950.9,425.1 950.9,434.5 	"/>
	<path class="st0" d="M960.3,472c0,12.8,10.4,23.3,23.3,23.3c12.9,0,23.3-10.6,23.3-23.3"/>
	<path class="st0" d="M969.7,472c0,7.7,6.2,14,14,14s14-6.3,14-14"/>
	<path class="st0" d="M960.3,462.6c0-12.9,10.4-23.3,23.3-23.3c12.9,0,23.3,10.4,23.3,23.3"/>
	<path class="st0" d="M969.7,462.6c0-7.8,6.2-14.1,14-14.1s14,6.3,14,14.1"/>
	<polygon class="st1" points="964.9,472 960.3,472 960.3,462.6 969.7,462.6 969.7,472 	"/>
	<polygon class="st0" points="964.9,472 960.3,472 960.3,462.6 969.7,462.6 969.7,472 	"/>
	<line class="st0" x1="997.6" y1="462.6" x2="1007" y2="462.6"/>
	<line class="st0" x1="997.6" y1="472" x2="1007" y2="472"/>
	<path class="st0" d="M964.9,518.7c12.9,0,23.5-10.4,23.5-23.3"/>
	<path class="st0" d="M964.9,509.3c7.8,0,14.1-6.3,14.1-14"/>
	<line class="st0" x1="964.9" y1="518.7" x2="964.9" y2="509.3"/>
	<path class="st0" d="M1016.4,453.2c12.9,0,23.3-10.4,23.3-23.3"/>
	<path class="st0" d="M1016.4,443.9c7.8,0,14-6.3,14-14"/>
	<line class="st0" x1="1016.4" y1="453.2" x2="1016.4" y2="443.9"/>
	<line class="st0" x1="1030.3" y1="429.9" x2="1039.7" y2="429.9"/>
	<line class="st0" x1="885.5" y1="626.2" x2="908.8" y2="570.1"/>
	<line class="st0" x1="876.1" y1="626.2" x2="899.5" y2="570.1"/>
	<line class="st0" x1="899.5" y1="570.1" x2="908.8" y2="570.1"/>
	<line class="st0" x1="876.1" y1="626.2" x2="852.8" y2="570.1"/>
	<line class="st0" x1="885.5" y1="626.2" x2="862.1" y2="570.1"/>
	<line class="st0" x1="862.1" y1="570.1" x2="852.8" y2="570.1"/>
	<line class="st0" x1="876.1" y1="626.2" x2="885.5" y2="626.2"/>
	<polygon class="st1" points="904.2,542 908.8,542 908.8,602.8 899.5,602.8 899.5,542 	"/>
	<polygon class="st0" points="904.2,542 908.8,542 908.8,602.8 899.5,602.8 899.5,542 	"/>
	<path class="st0" d="M899.5,602.8c0,12.9,10.6,23.3,23.3,23.3"/>
	<path class="st0" d="M908.8,602.8c0,7.7,6.3,14,14,14"/>
	<polygon class="st1" points="918.2,570.1 927.6,570.1 927.6,579.5 908.8,579.5 908.8,570.1 	"/>
	<polygon class="st0" points="918.2,570.1 927.6,570.1 927.6,579.5 908.8,579.5 908.8,570.1 	"/>
	<polygon class="st1" points="927.6,626.2 922.8,626.2 922.8,565.4 932.2,565.4 932.2,626.2 	"/>
	<polygon class="st0" points="927.6,626.2 922.8,626.2 922.8,565.4 932.2,565.4 932.2,626.2 	"/>
	<path class="st0" d="M922.8,565.4c0-12.9,10.6-23.3,23.5-23.3"/>
	<path class="st0" d="M932.2,565.4c0-7.7,6.3-14,14.1-14"/>
	<polygon class="st1" points="950.9,551.4 946.3,551.4 946.3,542 955.7,542 955.7,551.4 	"/>
	<polygon class="st0" points="950.9,551.4 946.3,551.4 946.3,542 955.7,542 955.7,551.4 	"/>
	<polygon class="st1" points="941.6,593.5 932.2,593.5 932.2,584.1 950.9,584.1 950.9,593.5 	"/>
	<polygon class="st0" points="941.6,593.5 932.2,593.5 932.2,584.1 950.9,584.1 950.9,593.5 	"/>
	<path class="st0" d="M1044.5,472c0,12.8,10.4,23.3,23.3,23.3s23.3-10.6,23.3-23.3"/>
	<path class="st0" d="M1053.8,472c0,7.7,6.2,14,14,14s14-6.3,14-14"/>
	<polygon class="st1" points="1049.1,472 1044.5,472 1044.5,462.6 1053.8,462.6 1053.8,472 	"/>
	<polygon class="st0" points="1049.1,472 1044.5,472 1044.5,462.6 1053.8,462.6 1053.8,472 	"/>
	<polygon class="st1" points="1086.5,472 1081.8,472 1081.8,462.6 1091.2,462.6 1091.2,472 	"/>
	<polygon class="st0" points="1086.5,472 1081.8,472 1081.8,462.6 1091.2,462.6 1091.2,472 	"/>
	<path class="st0" d="M1044.5,462.6c0-12.9,10.4-23.3,23.3-23.3s23.3,10.4,23.3,23.3"/>
	<path class="st0" d="M1053.8,462.6c0-7.8,6.2-14.1,14-14.1s14,6.3,14,14.1"/>
	<path class="st0" d="M1081.8,472c0,12.8,10.6,23.3,23.3,23.3"/>
	<path class="st0" d="M1091.2,472c0,7.7,6.3,14,14,14"/>
	<path class="st0" d="M1081.8,462.6c0-12.9,10.6-23.3,23.3-23.3c12.9,0,23.5,10.4,23.5,23.3"/>
	<path class="st0" d="M1091.2,462.6c0-7.8,6.3-14.1,14-14.1c7.8,0,14.1,6.3,14.1,14.1"/>
	<polygon class="st1" points="1105.1,472 1081.8,472 1081.8,462.6 1128.6,462.6 1128.6,472 	"/>
	<polygon class="st0" points="1105.1,472 1081.8,472 1081.8,462.6 1128.6,462.6 1128.6,472 	"/>
	<line class="st0" x1="1119.3" y1="462.6" x2="1128.6" y2="462.6"/>
	<line class="st0" x1="1119.3" y1="472" x2="1128.6" y2="472"/>
	<polygon class="st1" points="1116.9,495.3 1105.1,495.3 1105.1,486 1128.6,486 1128.6,495.3 	"/>
	<polygon class="st0" points="1116.9,495.3 1105.1,495.3 1105.1,486 1128.6,486 1128.6,495.3 	"/>
	<path class="st0" d="M969.7,602.8c0,12.9,10.4,23.3,23.3,23.3c12.9,0,23.3-10.4,23.3-23.3"/>
	<path class="st0" d="M979,602.8c0,7.7,6.2,14,14,14s14-6.3,14-14"/>
	<polygon class="st1" points="1011.7,626.2 1007,626.2 1007,570.1 1016.4,570.1 1016.4,626.2 	"/>
	<polygon class="st0" points="1011.7,626.2 1007,626.2 1007,570.1 1016.4,570.1 1016.4,626.2 	"/>
	<path class="st0" d="M969.7,593.5c0-12.9,10.4-23.3,23.3-23.3c12.9,0,23.3,10.4,23.3,23.3"/>
	<path class="st0" d="M979,593.5c0-7.8,6.2-14,14-14s14,6.2,14,14"/>
	<polygon class="st1" points="974.3,602.8 969.7,602.8 969.7,593.5 979,593.5 979,602.8 	"/>
	<polygon class="st0" points="974.3,602.8 969.7,602.8 969.7,593.5 979,593.5 979,602.8 	"/>
	<path class="st0" d="M1007,602.8c0,12.9,10.6,23.3,23.3,23.3"/>
	<path class="st0" d="M1016.4,602.8c0,7.7,6.3,14,14,14"/>
	<path class="st0" d="M1007,593.5c0-12.9,10.6-23.3,23.3-23.3c12.9,0,23.5,10.4,23.5,23.3"/>
	<path class="st0" d="M1016.4,593.5c0-7.8,6.3-14,14-14c7.8,0,14.1,6.2,14.1,14"/>
	<polygon class="st1" points="1030.3,602.8 1007,602.8 1007,593.5 1053.8,593.5 1053.8,602.8 	"/>
	<polygon class="st0" points="1030.3,602.8 1007,602.8 1007,593.5 1053.8,593.5 1053.8,602.8 	"/>
	<line class="st0" x1="1044.5" y1="593.5" x2="1053.8" y2="593.5"/>
	<line class="st0" x1="1044.5" y1="602.8" x2="1053.8" y2="602.8"/>
	<polygon class="st1" points="1042.1,626.2 1030.3,626.2 1030.3,616.8 1053.8,616.8 1053.8,626.2 	"/>
	<polygon class="st0" points="1042.1,626.2 1030.3,626.2 1030.3,616.8 1053.8,616.8 1053.8,626.2 	"/>
</g>
</svg>
