<svg xmlns="http://www.w3.org/2000/svg" viewBox="0 0 215 209">
  <title>v2-mixcloud</title>
  <g id="Layer_2" data-name="Layer 2">
    <g id="Layer_1-2" data-name="Layer 1">
      <g id="v2-mixcloud">
        <path d="M0,182V28.1H14V14H28V0H187V14h14V28h14V182H201v14H187v13H28V196H14V182ZM74.464,84.859l-1,4v38h8v-44h-16l-9,42h-2l-9-42h-16v44h8v-38l-1-4h2l10,42h14l10-42Zm91.246,27,21,15v-9l-18-13,18-13v-9h0l-21,15h-2.246l-21-15h0v9l18,13-18,13v9l21-15Zm-75.246-12v8h44v-8Z"/>
      </g>
    </g>
  </g>
</svg>
