<?xml version="1.0" encoding="utf-8"?>
<!-- Generator: Adobe Illustrator 23.1.1, SVG Export Plug-In . SVG Version: 6.00 Build 0)  -->
<svg version="1.1" id="IMCA_RAYDEEOH" xmlns="http://www.w3.org/2000/svg" xmlns:xlink="http://www.w3.org/1999/xlink" x="0px"
	 y="0px" viewBox="0 0 964.6 434.8" style="enable-background:new 0 0 964.6 434.8;" xml:space="preserve">
<style type="text/css">
	.st0{display:none;fill:#0000FF;}
	.st1{fill:#CCCCFF;}
	.st2{fill:#FFFFFF;}
	.st3{display:none;fill:#FFFFFF;}
</style>
<path class="st0" d="M950.4,364.9c-1.4-0.9-3.3-2.2-5.6-3.7c-191.7-124.3-560-165.1-770.3,49.7C-23.6,613.3,42.9,915.5,49.1,941.9"
	/>
<g id="raydeeoh">
	<path class="st1" d="M288.1,403.3l9.3-5.4l3.7,6.3c0,0,2.5-13.9,15.1-14.5l1.5,6.5c-12.4,1.1-12.1,15.8-12.1,15.8l10.1,17.4
		l-9.3,5.4L288.1,403.3z"/>
	<path class="st1" d="M369.3,371.3l-2-4.7l9.9-4.2l14.3,33.5l-9.9,4.2l-1.8-4.3c0,0-4,7.1-11.9,9.9c-9.1,3.3-21.7,1.5-26.3-8.8
		c-4.5-10.1,2.6-19.8,11-23.7C361.6,368.9,369.3,371.3,369.3,371.3z M373.2,384.7c-1.8-4.9-7.2-7.6-14.7-5
		c-6.1,2.1-9.7,8.4-7.2,13.7c1.7,3.7,6.8,7.2,15.2,3.9C372.1,395.1,374.9,389.1,373.2,384.7z"/>
	<path class="st1" d="M408.1,355.3l10.3-3.2c0,0,3.9,13,4.9,15.9c3.8,11.1,23.6,2.9,20.8-5.9c-1.3-4-4.9-16.5-4.9-16.5l10.3-3.2
		c0,0,7.7,24.7,10.2,33.1c0.6,1.9,2.9,12.3-8.4,18.8c-13.3,7.7-27.6,4.2-27.6,4.2l-3.7-10.3c0,0,12.3,5.5,20.3,1.9
		c6-2.6,9.7-7.8,8.4-13.8c-0.5-2.2-2.2-7.3-2.2-7.3s-1.9,8.2-8.7,11.6c-5.7,2.8-19.7,4.3-24.6-9.4
		C411.9,368,408.1,355.3,408.1,355.3z"/>
	<path class="st1" d="M503.9,315.3l10.6-1.8l8.4,49.7c0,0-40.3,17.4-44.3-9.5c-3.6-24.2,27.6-24.7,27.6-24.7L503.9,315.3z
		 M489.1,351.8c0.2,11.8,21.5,3.9,21.5,3.9l-2.9-17.7C507.7,338,488.8,337.4,489.1,351.8z"/>
	<path class="st1" d="M568.3,353.5c10.1-0.5,13-7.6,13-7.6l7.8,5.1c0,0-3.2,5.8-11.8,9.1c-8.5,3.3-27.7,2.6-31.9-12.9
		c-2.9-10.4,4.9-24.6,23.2-25c21.8-0.4,23.8,19.2,23.8,19.2l-37.5,3.2C554.9,344.7,557.2,354,568.3,353.5z M555,339.6l25.8-2
		c0,0-3.4-6.8-13.3-6.3C558,331.8,555,339.6,555,339.6z"/>
	<path class="st1" d="M631,353.4c10.1,0.7,13.6-6.1,13.6-6.1l7.3,6c0,0-3.7,5.4-12.6,7.7c-8.8,2.3-27.7-0.5-30.5-16.4
		c-1.9-10.7,7.2-23.9,25.4-22.2c21.7,2,21.9,21.8,21.9,21.8l-37.6-1C618.5,343.2,619.9,352.7,631,353.4z M619.2,338.1L645,339
		c0,0-2.8-7.2-12.7-7.8C622.9,330.7,619.2,338.1,619.2,338.1z"/>
	<path class="st1" d="M723.4,349.1c-0.2,10.4-11.6,18.7-24.1,18.4c-12.5-0.3-23.5-9.6-23.2-20c0.2-10.8,10.3-19.8,24.1-19.5
		C714.5,328.4,723.7,338.3,723.4,349.1z M700.1,336.7c-7.9-0.2-13.7,5.3-13.8,11.1c-0.1,5.6,6.2,11.2,13.3,11.3
		c7.2,0.2,13.7-4.9,13.8-10.4C713.6,342.8,708.3,336.8,700.1,336.7z"/>
	<path class="st1" d="M752.3,325.5l10.6,2.1l-4.4,22.7c0,0,4.8-8.4,18.3-4.2c4.6,1.4,13.5,6.5,12.2,14c-0.8,4.6-4.6,24.5-4.6,24.5
		l-11-2.1l3.5-19c0,0,2.2-9.2-7.3-11.3c-11.3-2.5-13,7.4-13,7.4l-3.3,17.1l-10.6-2.1L752.3,325.5z"/>
</g>
<g id="I">
	<path id="I_00000072245775332023090800000003752397437474055329_" class="st1" d="M14.5,210.1c25.6-25.3,52.5-10.9,63.6,0.5
		c29.9,30.5,89.7,91.7,120,121.8c11.3,11.2,25.2,38.4-0.5,63.6c-25.6,25.3-52.4,10.7-63.6-0.5c-30.3-30.1-89.9-91.4-120-121.8
		C2.8,262.5-11.2,235.4,14.5,210.1z"/>
	<path id="I_2_" class="st2" d="M40.2,254.8c-2.3,7.5-10.4,7.8-14.5,3.2c-3.5-3.9-4.9-10.8-4.2-14.8c1.1-6.7,3.1-12.3,8.1-17.3
		c4.7-4.9,12.4-7.5,17.5-7.8c4.1-0.2,10.7,0.3,15.1,3.4c4.7,3.4,4.4,12.6-3.1,14.8c-4.2,1.2-10.3-1.6-15.7,3.5
		C38.3,244.4,41.5,250.7,40.2,254.8z"/>
</g>
<g id="M">
	<path id="I_3_" class="st1" d="M276.3,199.5c12,31.2,21.1,54.4,29.4,75.1c5.9,14.8,7.3,44.7-25.7,58.2
		c-34.1,12.5-52.2-11-58.2-25.7c-20.8-51.2-46.2-119.4-61.7-159.5c-5.7-14.8-8.4-45.7,25.7-58.2c37.4-18.2,55.1,6.2,86.1,23.9
		c2.8,1.6,8.6,6.2,11.6,5.1c3-1.1,4.5-8.5,5.1-11.6c7-31.7,5.7-60.1,47.6-76.4c33.6-13,52.3,10.5,58.1,25.4
		c15.5,40,42.6,107.6,61.7,159.5c5.5,14.9,8,45.5-25.7,58.2c-33.4,13.3-52.6-10.8-58.2-25.7c-7.8-20.9-15.7-43.5-27.8-74.6
		c0,0,0.4,28.8-24.8,38.5C294.5,221.4,276.3,199.5,276.3,199.5z"/>
	<path id="I_5_" class="st2" d="M191.4,139.7c-4.7,6.3-12.5,3.9-14.7-1.8c-1.9-4.9-1-11.8,1-15.4c3.3-5.9,7.1-10.5,13.4-13.6
		c6.1-3,14.2-2.9,19.1-1.4c3.9,1.2,10,3.9,13.1,8.3c3.2,4.7-0.1,13.4-7.9,12.9c-4.3-0.3-9.2-5-16-2
		C193.1,129.2,194,136.2,191.4,139.7z"/>
	<path id="I_1_" class="st2" d="M332.5,80.1c-5.4,5.6-12.9,2.3-14.4-3.7c-1.3-5.1,0.5-11.8,2.9-15.1c4-5.4,8.4-9.5,15-11.8
		c6.4-2.2,14.5-1.1,19.1,1c3.8,1.7,9.4,5.1,11.9,9.9c2.6,5.1-1.8,13.3-9.5,11.8c-4.2-0.8-8.5-6.1-15.6-4
		C335.5,70,335.5,77,332.5,80.1z"/>
	<path id="I_4_" class="st3" d="M312.2,167.6c4.7-6.3,12.5-3.9,14.7,1.8c1.9,4.9,1,11.8-1,15.4c-3.3,5.9-7.1,10.5-13.4,13.6
		c-6.1,3-14.2,2.9-19.1,1.4c-3.9-1.2-10-3.9-13.1-8.3c-3.2-4.7,0.1-13.4,7.9-12.9c4.3,0.3,9.2,5,16,2
		C310.5,178,309.6,171,312.2,167.6z"/>
</g>
<g id="C">
	<path id="C_1_" class="st1" d="M470,130.9c0.7-21,4.6-51.9,24.7-79.6C514.5,24,551.4-1.6,605.4,0.1c65.1,2.1,97.6,54.6,100.9,62
		c4.8,10.6,16,38.8-10.8,54.2c-27.4,15.8-45.9,0.2-53.6-11.1c-8.4-12.4-13.5-24.9-42-25.8c-29.5-0.9-39.1,24.1-42.9,32.2
		c-4.4,9.3-4.9,25.2-1.1,34.7c3.3,8.4,11.3,32.9,40.8,33.9c28.5,0.9,35.3-8.2,44.5-20c8.4-10.8,27.9-25.2,54.2-7.7
		c25.7,17.1,12.8,43.5,7.4,53.8c-3.8,7.2-40.4,55.6-105.6,53.5c-53.9-1.7-89.2-29.6-107.1-58C471.7,172.8,469.4,149.3,470,130.9z"/>
	<path id="I_6_" class="st2" d="M590.8,43c-7,3.5-12.9-2.1-12.4-8.2c0.4-5.2,4.4-11,7.8-13.3c5.6-3.8,11-6.2,18.1-6.2
		c6.8,0,14,3.8,17.7,7.2c3,2.8,7.2,7.9,8,13.3c0.8,5.7-6.1,11.9-12.8,8c-3.7-2.2-6-8.5-13.4-8.9C597,34.4,594.7,41.1,590.8,43z"/>
</g>
<g id="A_1_">
	<path class="st1" d="M736.3,204.6c-10.7,11-24.4,37,0.8,61.6s51.4,11.1,62.1,0c11.3-11.7,30-36.5,48.3-58.3
		c3.7-4.4,11.7-5.1,16.3-3.2c3.7,1.5,8.6,7.6,8.8,13.1c0.9,31.3,1.7,60.7,2.1,78.3c0.3,15.4,10.2,43.2,45.4,42.4
		c35.2-0.8,44.8-28.4,44.5-43.7c-0.8-41.3-5.4-149.2-8.9-189.3c-2.5-28.4-23.6-38.3-31.9-41.6c-8.4-3.3-33.5-13.2-53.9,6.6
		C840.2,99.3,765.1,175.1,736.3,204.6z M889.9,138.8c11.2,4.4,5.1,22.4-0.4,25.6c-6.3,3.6-16.7-0.3-17.7-7
		C870.7,149.4,878.8,134.3,889.9,138.8z"/>
	<path id="I_7_" class="st2" d="M908.1,97.2c-7-2.5-11.6,2.4-15.8,3c-7.8,0.9-11.6-7.5-8.7-12.4c2.8-4.6,8.7-7.7,12.6-9.1
		c4.7-1.7,12.9-2.3,19.1,0.3c6.5,2.8,10.6,7.1,14.2,12.8c2.2,3.5,3.6,10.3,1.9,15.3c-1.9,5.8-9.6,8.7-14.6,2.7
		C914,106.5,914.5,99.5,908.1,97.2z"/>
</g>
<image style="display:none;overflow:visible;" width="4095" height="1798" xlink:href="../editing/imcaraydeeoh_logo_v3-shadow.png"  transform="matrix(0.24 0 0 0.24 -13.5519 -9.0655)">
</image>
</svg>
