<svg xmlns="http://www.w3.org/2000/svg" viewBox="0 0 343.258 123.186">
  <defs>
    <style>
      .a {
        fill: none;
        stroke: #000;
        stroke-linecap: round;
        stroke-linejoin: round;
        stroke-width: 2px;
      }
    </style>
  </defs>
  <title>sam-vector</title>
  <g>
    <path class="a" d="M23.575,40.432c.6.475,0,0-.766-1.494-2.105-4.105,1.556-7.465,3.977-3.36.417.708.225.571-.031-.577-1.263-5.685,3.579-7.895,6.907-4.175.128.143.076-.37.041-.562-1.106-6.079,4.444-4.508,6-2.4.529.718.68.3.713.033.974-7.737,8.026.263,4.225,6.258l.926.116c3.812.475.665,8.1-3.967,9.679-3.277,1.117-6.377-.635-8.421-1.684-.789-.406.655.736.893,1.592,1.844,6.618-4.107,6.948-6.634,3.264,0,0-.515-1.212.057.933,2.105,7.9-8.21,7.158-8.21,7.158h0c1.653,1.587-5.579,6.121-4.737,6.121.526,0,1.923,1.032,2.044.965.885-.493,6.9-11.191,8.166-.244.02.171.447-.718.457-.89.07-1.11,6.7-11.11,11.017-2.478.09.18.116-.7.153-.893.632-3.368,6.268-8.265,8.268-.055.038.158-.059.152,0,0,2.316-5.894,8.316-8,6.361.665-.041.182.645.464.692.283,2.526-9.79,14.736,8.947.526,4.737h0c2.316-.421,4.421,12-3.158,5.894-.139-.112.174.545.722,1.474,1.381,2.34,2.212,13.789-6.932,7.789a11.33,11.33,0,0,0,.736,1.158c1.579,2.632-.105,15.79-8.842,8.948-.112-.088.41.727.478.853,2.259,4.2-2.793,10.305-8.731,5.778-.122-.093-.166-.256-.1-.12.981,1.91-2.388,12.436-9.124,5.383-.109-.113.194,1.156.194,1.156.078,1.586.858,9.686-4.931,6.529-.163-.089-.655-1.132-.632-.948,1.04,8.182-3.368,10.737-7.368,10.105-3.973-.627-5.608-8,.482-9.118.173-.032.175.018,0,0-2.377-.25-3.535-6.355,4.094-7.284.152-.018,0,0-.132-.075-1.986-1.124.4-8.47,6.082-4.786.129.084-.028-.429-.121-.55-1.037-1.344,2.858-7.555,7.308-5.4.165.08,1.03.65.444.424-2.221-.855.586-10.077,8.531-4.086.155.116-.686-.465-.686-.465-2.416-1.611-2.416-12.348,10.42-10.3,1.144.182.943,1.162.315-.36-.562-1.362-.271-6.02,0-6.843.052-.16-.6,4.918-2.212,5.489-1.008.357-1.639.672-2-2.436-.027-.236-.643.624-.737.842-1.579,3.684-8.2,7.158-7.574-.271.055-.644-.16-.176-.2.019C28.131,74.5,22.44,80.474,20,74.028c-.48-1.267-.292-1.758-.292-.817,0,2.526-11.053,8.526-9.79-3.895.022-.211.067-.2,0,0-.842,2.527-8.737-4.21-4.029-6.676l.871.15c-5.579,0-1.069-15.368,6.211-10.1.128.092-1.2-.768-1.2-.768-3.221-2.442-1.01-10.706,5.012-5.777a4.722,4.722,0,0,1-.978-.6C14.059,42.786,17.209,35.4,23.575,40.432Z"/>
    <path class="a" d="M280.755,38.264c-3.569,2.816-2.967,7-1.29,5.658,0,0,.711,8.526,5.29,2.052.964-1.362,1.028-1.572,1.052-.973.132,3.184.368,6.622,1.316,6.623,1.895,0,2.476-6.651,2.148-8.65C288.665,39.29,286.467,33.757,280.755,38.264Z"/>
    <path class="a" d="M193.439,27c.678.116.65-7.94,3.737-8.527,3.184-.605,2.372,7.078,2.947,6.316.511-.677.179-6.9,2.883-5.356,1.1.632.349,7.173,1.117,7.04.4-.068.774-4.638,2.559-3.8,1.889.883-1.98,16.41-1.19,18.094.218.465,1.982-10.739,4.816-11.448,1.579-.394,1.941,2.313,2.526,3.158.71,1.027.975-6.43,4.421-7.579,2.131-.71,2.921,1.579,3.342,1.124.449-.485,2.5-4.676,4.365-3.469,2.622,1.7-.832,12.889-.214,12.113,1.744-2.189,1.163,1.392,1.744,1.6.515.185,1.426-9.175,3.737-9.579,2.1-.369,2.522,4,2.736,5,.237,1.105,2.222-12.146,4.486-12.485,3.158-.474,1.759,7.332,1.988,8.932.158,1.1,2.254-11.245,5.605-11.289,3.079-.041.958,7.638.869,9.789-.079,1.895,2.321-5.513,4.579-3.474,2.447,2.211-2.027,15.474-3.553,17.685-.737,1.067,4.615-3.8,4.087,2.988-.238,3.065-4.64,7.275-3.75,8,1.313,1.072-.886,12.119-3.021,8.352-.233-.412.079.552.079.552,1.184,3.4-2.286,14-1.9,15.211.4,1.245,1.977-8.045,3.961-7.677,3.223.6-.883,8.97.485,9.424,1.949.648.37,3.647.37,3.648,2.842,4.026-2.447,1.934-1.768,2.273,2.557,1.279.316,5.08.9,5.148.941.109,1.658-3,3.267-2.8,2.268.29.382,6.887,1.233,8.084,2.527,3.553-.859,4.909-1.579,2.211-.315-1.185,2.922,15.157.158,15.157-3.881,0-4.584-11.587-4.884-13.184-.089-.473.779,7.263-2.537,7.184-2.526-.06-1.835-5.921-1.736-7.5.078-1.263-.632,5.922-2.448,4.816-3.74-2.276-1.625-14.03-2-13.449-3.789,5.921-2.719-15.732-.884-13.507,1.46,1.772-.908-18.438,2.329-16.544,1.737,1.017-1.914-13.3,2.289-15.631,1.421-.79,1.731-.445,1.421-.79-1.421-1.579-1.048-4.836-1.263-5.842-.145-.676-.869,5.763-2.782,5.9-1.594.109-1.281-1.515-1.244-1.079.868,10.263-.963,11.873-1.737,7.105-.369-2.269.71,7.421-2.566,7.267-2.437-.115-3.463-12.24-3.434-12.24s.312,5.852.789,14.052c.215,3.693-.4,5.132-1.184,4.9-1.064-.319-2.513-8.83-2.211-8.921.326-.1.869,15.71-.315,16.579-1.77,1.3-1.544-4.389-1.838-5.984-.553-3,3.417,20.115-2.706,13.495-1.383-1.5,1.859,10.331.044,11.041-1.509.591-2.948-1.434-2.606-.236,1.9,6.631,3.434,15.613.159,15.951-5.045.521-4.746-12.362-4.895-11.136-.79,6.474-4.185.553-2.448-3.789.6-1.511-1.263,1.737-1.737-1.263-.3-1.912.861-11.53,3.782-9.24.977.766-1.056-9.341,1.666-11.6,1.235-1.027-.948-8.369,1.235-13.658,3.509-8.5,2.291-13.409,2.317-14.132.018-.48-1.815,11.132-3.815,10.921-2.188-.23-.664-9.906-1.264-8.842-2.342,4.158-1.671,15.3-4.155,15.367-3.632.1-2.573-8.618-2.923-8.525-.261.069.868,3.869-1.579,4.184-.56.073.868,2.435,1.363,5.14.316,1.724,2.11,13.018.313,12.908-1.65-.1-2.93-9.142-3.255-9.048-.394.115,2.461,14.686.947,16.343-2.526,2.763-3.237-4.737-3.553-3.316-.327,1.473,1.816,15.158.079,15.473-.843.154,1.9,10.106-.947,10.264-2.934.163-3.395-8.527-3.474-7.185-.052.883,1.25,8.673-1.263,8.369-2.6-.316-1.453-11.311-2.479-10.285-4.425,4.425-.714-16.179-1.389-16.32-2.306-.483.473-3.553-.79-2.685-2.417,1.662-.116-9.772.369-15.315.113-1.3-1.316-5.211,2.053-3.714.145.064.684,1.289.145.064-1.383-3.14,1.352-11.986,1.144-12.061-.185-.067-2.211,9.158-3.869,7.579-1.08-1.029.869,2.526.079,3.316-.83.83-1.4-.612-1.342-.158.474,3.5-.079,17.289-2.684,4.184-.325-1.634-.832,12.794-3.662,12.524-3.838-.366.6-14.572-1.338-14.261-3.447.553-.078-7.018.149-8.507,2.246-14.7,5.418-7.589,5.562-8.072,2.274-7.635,2.184-14.684,5.131-14.894C194.048,23.247,193,26.925,193.439,27Z"/>
    <g>
      <path class="a" d="M114.939,10.843c1.3-9.09,6.869-4.027,6.948-4.816.6-5.983,7.737-5.921,7.1-2.921-.28,1.33,5.289-6.632,5.132,1.9-.024,1.253,4.105-3.079,5.052,3.079.236,1.533-2.024,3.736-1.1,3.157,2.131-1.342,4.026,2.369,1.263,5.132-.527.527.9,4.664-2.289,8.763-.3.385.947,6-2.707,8.925-1.43,1.144,5.233.312-.661,7.039-.885,1.009,2.42-1.674,3.841-.569,1.065.828-1.2,5.922-3.552,7.737-.231.177-1.465,1.1-1.185,1.026,2.921-.789,3.5,1.339,1.264,2.211-.874.34,4.736.631-1.343,4.263-.784.468,4.248-2.435,4.9-1.263.866,1.566-.237,3.631-2.21,5.289,0,0,.473,5.053-2.606,6.632-.768.393,2.7.859,1.421,3.236-1.657,3.079-4.894,5.369-5.289,6.079-.437.788.158.316,1.342.79s3.749-6.276,6.079-5.448c.859.306.688,2.009,1.026,1.816.506-.289,1.663-1.277,3.185.527,0,0,1.755,2.833-.771,3.386-.242.053-.891.141,0,0,2.975-.474,1.192,10.929-3.519,9.666-.478-.128.474,2.37-2.21,2.37-1.974,0-1.074-2.931-1.421-2.686-.5.352-.862,2.684-1.974,2.685-1.676,0-2.342-1.5-2.526-3-.075-.61,0-1.658-.709-.481-1.276,2.12-5.35,3.381-5.055-6.072.079-2.526,2.132-8.447,3.771-12.15.244-.549-2.034,3.071-3.281,3.137-.689.036.273,3.974-1.832,4.118-1.015.07-.381-2.8-1.383-2.623-.511.092-.117,8.544-3.2,3.334-.727-1.232.4,7.263-3.237,2.842-1.143-1.393-.774,4.675-3.394,6.631-1.964,1.467-2.2-3.334-2.369-3.631-.309-.542-.466,6.052-3.324,5.5-3.149-.606-2.3-6.529-2.755-4.949-1.736,6.079-5.635,2.711-3.763-4.5.189-.724-1.131.79-2,0-1.533-1.393-1.421-4.105,1.106-6.789,1-1.059-2.922-.474-.869-6.316.116-.33-1.737-1.973-.316-3.71.961-1.174.726-1.77,2.621-1.87,0,0-2.436-2-.015-7.051,1.057-2.209,3.544-3.8,3.982-2.453.119.364-.93-4.712,2.175-5.047,2.065-.223,2.813,3.281,3.058,2.776.329-.679.1-4.513,2.232-4.987,4.023-.894,3.891,3.946,4.342,2.921.339-.77.23-4.218,2.111-5.129,3.31-1.6,3.688,4.329,4.126,3.156.324-.871-.79-3.79,1.974-3.711,1.15.033,1.277,3.58,2.368,3.947.806.272-.711-8.684,3.158-1.263,1.059,2.032-1.7-10.737,1.113-9.044,1.255.755-.346-7.981,1.729-6.35,1.105.868-.885-4.468,2.526-8.448.119-.138.5-.445.119-.138-1.382,1.121-3.37-3.291-1.175-4.311A3.828,3.828,0,0,0,133.1,12.5c-1.8,1.8-3.889-.6-3.237-2.29,0,0-.036,4.635-3.473,1.579-.711-.631-1.106,8.211-6.158,6.79,0,0-2.144,4.315-3.632,1.736-.9-1.567-1.1,5.106-4.066,3.128-1.123-.749-1.249,2.435-3.118,1.609-.489-.216.5,2.553-1.71,2.474-2.88-.1-1.369-2.237-1.369-2.237-5.605,1.342-2.562-3.633-2.075-4.248,0,0-3.135,1.643-2.854-.731.725-6.123,5.406-3.637,5.127-4.069-1.682-2.61,1.315-5.452,3.222-3.267,1.069,1.225-1.066-2.331.37-3.238C113.124,7.843,114.86,11.4,114.939,10.843Z"/>
      <path class="a" d="M120.124,48.158c.605,6.054,5.477,3.587,3.973,3.737-1.579.158-3.535,1.252-3.473,2.29.057.969,2.988,1.363,2.988,1.363-6.225,2.742.668,5,.668,5s-4.683-2.491-6.42.43c-.609,1.025.449,4.051-.068,3.648-6.089-4.753-4.984,6.485-5.063,5.905,0,0-.015-4.226-2.857-3.279-1.415.472-3.143,5.963-3.064,4.3.084-1.767,3.173-5.842-1.721-6.079-1.876-.091,8.072,1.128,5.52-6.029-.222-.622.589-.494,1.133-.332,2.877.859,5.226-2.68,4.595-5.917-.3-1.528.9.263,2.336-.038C120.638,52.748,120.045,47.369,120.124,48.158Z"/>
    </g>
    <path class="a" d="M315.573,59.774c.437.6-.088-.244.34-1.721,1.158-4,6.526-.421,6.292,4.064-.039.758-.027.545.143-.493.722-4.413,6.091-.834,6.937,2.884.04.178.113-.308.207-.455,2-3.158,5.915-1.509,6.782.782.3.781.087.892.3.781,4.712-2.51,7.037,4.437,1.449,4.121l.21.737c.563,1.97-1.253,3.637-3.789,3.369-1.637-.174-2.684-1.268-4.316-3.264-.559-.683,0,0-.667,1.741-2.206,5.754-5.789.307-7.122-3.635,0,0-.135-1.189-.223.8-.324,7.315-6.093-4.405-6.093-4.405a12.218,12.218,0,0,1,.421,4.027c-.054,2.067-3.747.731-2.937,1.02.173.061,2.206.794,2.531,2.327.216,1.016-.542-.413,1.519-.947.836-.217,4.474,1.72,3.551,7.45-.024.151.643-.447.7-.587,0,0,3.685-2.947,4.087,1.187.018.183,4.847-.189,2.65,3.655-.421.737,6.842-4.737,5.579,3.263,0,0,6.132-2.842,3.684,3.395-.061.155,8.842,1.342,1.579,6.947,3.084-2.38,5.127,5.257-1.663,4.231,0,0-.15.476,0,.664,3.869,4.658-1.026,7.184-7.263-.868-.106-.137,7.027,12.315-6.158,4.5-.116-.07,4.421,11.921-5.526,4.5-.314-.235,1.974,10.5-7.658,3.157-.11-.083.084.975.079,1.106-.158,4.026-2.921,8.08-7.022,2.823-.092-.118,0,0,.154.256,3.974,6.633-4.027,6.763-3.934-.175h0c.38,4.043-3.942,6.359-7.672,1.911-4.105-4.894,3.5-4.607,3.395-4.736-3.552-4.5-2.89-7.849-.158-7.106,2.525.688,5.159,4.631,5.369,4.421.473-.473-8.7-10.227-1.263-8.368.631.158-3.632-5.605.868-6.632,2.4-.547,3.758,4.384,4.263,3.79.1-.116-1.026-4.9,2.526-5.447,4.916-.765,5.764,5.763,5.764,4.342,0-10.127,7.578-2.132,7.1-3.158-2.02-4.377,4.658-5.369,3.552-5.132-6.206,1.33-5.289-5.263-5.289-5.263h0c-13.471-.3-4.013-7.81-4.519-7.474-7.372,4.909-10.787-2.452-7.313-3.5h0c-7.053,2.315-11.221-11.864-5.221-9.653.145.053-1.684-1.474-1.684-1.474-2.371-3.143-.526-12.948,8.211-1.669.743.96-.065-.826-.106-.963C307.375,58,310.948,53.389,315.573,59.774Z"/>
  </g>
</svg>
